<svg width="5690" height="904" viewBox="0 0 5690 904" fill="none" xmlns="http://www.w3.org/2000/svg">
<g clip-path="url(#clip0_1097_1141)">
<g clip-path="url(#clip1_1097_1141)">
<path fill-rule="evenodd" clip-rule="evenodd" d="M2486.46 -2248.59C2479.65 -2248.59 2472.84 -2249.37 2471.7 -2250.55C2468.68 -2253.68 2401.69 -2254.86 2334.33 -2252.5C2266.96 -2250.15 2252.2 -2245.84 2236.68 -2223.5C2226.09 -2207.83 2225.33 -2180.39 2235.55 -2164.33C2242.36 -2153.74 2242.74 -2153.35 2248.04 -2160.8C2251.82 -2165.89 2252.58 -2173.34 2251.06 -2184.31C2249.55 -2196.46 2250.31 -2201.56 2255.98 -2206.65C2271.88 -2221.54 2286.64 -2223.9 2353.25 -2222.72C2426.67 -2221.15 2450.51 -2218.8 2466.79 -2211.35C2472.84 -2208.61 2481.17 -2205.48 2484.57 -2204.3C2505.39 -2197.25 2512.58 -2123.57 2501.22 -2040.88C2500.57 -2036.28 2499.97 -2032.01 2499.41 -2028.04L2499.41 -2028.02C2494.86 -1995.58 2493.16 -1983.46 2486.33 -1978.7C2482.26 -1975.86 2476.37 -1975.63 2466.96 -1975.28C2465.14 -1975.21 2463.2 -1975.14 2461.11 -1975.04C2445.59 -1974.25 2419.1 -1975.82 2402.45 -1978.56C2385.8 -1980.92 2369.52 -1982.87 2366.49 -1982.87C2342.27 -1982.09 2306.7 -1978.56 2301.4 -1976.21C2294.59 -1973.47 2290.05 -1985.23 2284.75 -2020.89C2282.85 -2032.65 2277.93 -2043.23 2269.61 -2052.63C2257.5 -2066.35 2255.98 -2067.13 2237.06 -2065.57C2201.49 -2062.43 2094 -2025.98 2070.54 -2009.13C2051.62 -1995.02 2036.86 -2003.25 2023.99 -2035C2020.58 -2043.62 2007.34 -2064.78 1994.47 -2082.42C1972.9 -2111.81 1969.49 -2114.55 1952.84 -2118.87C1942.62 -2121.22 1925.59 -2123.18 1914.24 -2123.18C1897.59 -2123.18 1891.15 -2120.83 1876.01 -2110.24C1865.79 -2102.8 1851.41 -2093.78 1844.22 -2089.86C1837.03 -2085.95 1829.46 -2080.46 1827.95 -2077.72C1826.44 -2074.58 1813.57 -2062.82 1799.56 -2051.46C1745.07 -2006 1723.49 -1976.6 1723.12 -1946.04C1723.12 -1928.79 1737.12 -1908.81 1746.96 -1912.72C1752.26 -1914.68 1752.26 -1917.04 1747.34 -1937.02C1747.05 -1938.14 1746.77 -1939.21 1746.51 -1940.23C1744.53 -1947.85 1743.22 -1952.88 1743.99 -1957.57C1745.5 -1966.69 1754.88 -1974.52 1782.54 -1997.59L1785.45 -2000.01L1787.45 -2001.69C1846.49 -2050.67 1857.09 -2057.34 1877.91 -2059.69C1910.07 -2062.82 1921.05 -2058.51 1946.03 -2033.04C1969.11 -2009.52 1971.38 -2005.21 2020.58 -1897.44C2035.72 -1863.74 2034.59 -1860.99 1991.82 -1830.42C1982.36 -1823.76 1964.57 -1808.09 1952.84 -1795.94L1930.89 -1773.99L1896.45 -1805.34C1871.85 -1827.29 1854.44 -1839.83 1837.79 -1846.88C1824.54 -1852.37 1811.68 -1856.68 1809.03 -1856.68C1793.51 -1856.68 1751.12 -1809.26 1734.09 -1772.42C1728.41 -1759.49 1716.3 -1737.54 1707.98 -1723.43C1691.7 -1696.79 1689.43 -1679.54 1701.17 -1677.19C1705.33 -1676.41 1710.25 -1681.5 1715.93 -1692.87C1720.47 -1702.27 1736.74 -1729.31 1751.88 -1752.83C1777.99 -1794.37 1789.72 -1805.73 1805.62 -1805.73C1816.97 -1805.73 1849.52 -1787.71 1862.01 -1775.17C1868.44 -1768.11 1875.63 -1762.63 1877.53 -1762.63C1882.45 -1762.63 1904.78 -1736.37 1904.78 -1730.49C1904.78 -1728.14 1901.37 -1722.26 1897.21 -1717.56C1888.12 -1707.37 1864.66 -1667.78 1861.25 -1656.81C1859.74 -1652.5 1857.47 -1649.76 1855.58 -1650.93C1852.55 -1652.89 1845.74 -1638 1847.25 -1632.51C1847.63 -1630.55 1846.12 -1629.38 1843.84 -1629.38C1841.57 -1629.38 1840.44 -1627.03 1841.57 -1623.89C1842.71 -1621.15 1841.2 -1614.88 1837.79 -1610.17C1830.6 -1599.2 1826.44 -1599.99 1753.39 -1625.46C1673.92 -1652.89 1630.77 -1661.91 1581.19 -1662.3C1544.11 -1662.69 1537.67 -1661.51 1521.02 -1652.89C1511.18 -1647.8 1499.07 -1638.39 1494.15 -1632.51C1474.47 -1608.22 1452.9 -1523.96 1447.98 -1453.02C1446.09 -1421.67 1446.46 -1418.14 1456.3 -1398.94C1466.52 -1378.56 1482.42 -1366.02 1507.02 -1358.18C1526.32 -1352.3 1534.27 -1375.42 1516.1 -1382.87C1492.64 -1392.67 1486.96 -1396.98 1478.25 -1410.3C1466.52 -1428.72 1463.12 -1449.89 1470.69 -1457.72C1473.71 -1460.86 1480.15 -1476.54 1484.69 -1492.6C1499.83 -1544.33 1522.91 -1584.31 1545.62 -1596.07C1560.76 -1604.3 1603.9 -1603.51 1632.66 -1594.11C1676.19 -1580.39 1751.12 -1558.05 1766.64 -1554.52C1774.96 -1552.17 1789.35 -1547.86 1798.43 -1544.34C1814.7 -1538.06 1814.7 -1537.67 1812.81 -1522.39C1811.68 -1513.77 1807.51 -1502.01 1803.35 -1496.52C1798.05 -1488.69 1795.78 -1476.54 1793.89 -1447.14C1790.1 -1390.71 1787.83 -1384.44 1771.94 -1384.05C1764.75 -1383.65 1742.42 -1386.01 1721.6 -1389.14C1683.76 -1394.63 1648.94 -1391.88 1631.15 -1381.7C1617.15 -1374.25 1609.58 -1347.99 1609.58 -1306.84C1609.58 -1261.77 1614.88 -1247.66 1634.56 -1239.04C1665.21 -1225.72 1719.33 -1225.72 1719.33 -1239.04C1719.33 -1246.49 1702.3 -1252.37 1674.67 -1253.93C1658.4 -1255.11 1647.8 -1258.25 1640.61 -1263.73C1630.77 -1271.57 1630.39 -1273.14 1630.39 -1305.27C1630.39 -1326.83 1632.29 -1340.94 1635.31 -1344.07C1640.61 -1349.56 1666.35 -1349.56 1734.47 -1344.46L1777.99 -1341.33L1776.86 -1272.75C1776.1 -1235.12 1774.21 -1194.37 1773.07 -1182.61C1770.42 -1161.45 1770.04 -1161.05 1757.18 -1159.09C1742.04 -1156.74 1637.58 -1161.05 1603.9 -1164.97C1577.79 -1168.11 1569.08 -1162.62 1573.25 -1146.16C1575.9 -1134.8 1593.68 -1126.17 1630.39 -1117.94C1656.89 -1112.07 1745.45 -1099.52 1766.26 -1098.74L1776.86 -1098.35L1774.59 -1067C1773.45 -1049.75 1771.18 -1004.29 1770.04 -966.278L1767.4 -896.519H1741.66C1727.66 -896.519 1713.65 -895.343 1710.63 -894.168C1700.79 -890.248 1676.57 -917.29 1667.1 -942.763L1666.9 -943.315C1661.68 -957.481 1658.44 -966.29 1652.25 -971.768C1642.06 -980.778 1623.91 -980.778 1575.9 -980.778H1575.9C1539.19 -981.17 1499.83 -982.346 1488.47 -983.913C1460.09 -987.44 1444.19 -981.17 1430.19 -960.007C1420.73 -946.291 1418.84 -940.02 1419.22 -921.992C1419.97 -898.478 1424.51 -891.032 1440.79 -887.897C1453.65 -885.153 1463.49 -894.167 1471.82 -914.938C1475.98 -924.344 1479.39 -927.871 1483.17 -926.303C1486.58 -925.128 1511.94 -923.952 1539.94 -923.952H1590.66L1602.39 -899.654C1623.96 -855.369 1634.18 -842.828 1659.91 -830.287C1692.08 -814.611 1719.71 -809.516 1748.85 -813.435C1778.75 -817.746 1780.64 -815.395 1783.29 -773.853C1786.32 -731.136 1782.53 -580.645 1778.75 -576.726C1773.07 -570.455 1709.87 -567.712 1672.02 -571.631C1634.56 -575.55 1618.66 -578.293 1564.16 -589.659C1528.59 -597.497 1486.58 -596.321 1456.68 -586.915C1406.35 -570.847 1392.34 -572.415 1378.72 -595.929C1368.88 -612.781 1369.26 -631.984 1379.86 -646.484C1401.81 -676.661 1411.27 -684.891 1433.6 -692.337C1450.25 -697.824 1456.3 -701.743 1456.3 -707.23C1456.3 -718.595 1423.76 -715.851 1404.83 -702.527C1380.99 -686.459 1359.42 -664.904 1347.69 -646.093C1338.23 -630.025 1337.09 -625.322 1337.09 -593.577C1337.09 -553.603 1343.14 -538.319 1365.1 -524.602C1381.75 -513.629 1415.05 -513.629 1455.17 -524.602C1483.55 -532.049 1487.34 -532.049 1508.91 -526.562C1577.79 -509.318 1609.96 -505.791 1690.95 -506.575C1734.85 -507.359 1773.07 -506.967 1776.1 -506.183C1781.02 -505.007 1781.78 -488.547 1781.78 -387.044V-269.865L1772.32 -267.906C1745.45 -262.419 1670.51 -256.933 1658.78 -258.892C1630.39 -264.771 1609.96 -299.258 1614.88 -333.746C1616.39 -342.759 1618.66 -377.247 1620.55 -411.342C1622.45 -445.046 1625.1 -474.439 1626.61 -476.79C1627.75 -479.142 1626.23 -482.277 1622.83 -483.453C1611.47 -488.156 1602.77 -472.087 1591.03 -424.667C1584.6 -398.802 1575.14 -370.585 1569.84 -361.571C1547.13 -321.205 1549.03 -289.852 1577.03 -245.959C1600.5 -209.12 1611.85 -205.593 1707.98 -202.85C1749.61 -201.674 1781.4 -199.323 1781.02 -197.363C1780.26 -195.404 1756.42 -193.052 1728.04 -191.877C1699.27 -191.093 1673.16 -188.741 1670.13 -187.174C1667.1 -185.606 1643.26 -184.038 1617.15 -183.647L1612.84 -183.518L1612.83 -183.517H1612.82C1588.01 -182.775 1562.57 -182.014 1554.7 -180.903C1546.38 -180.119 1526.32 -178.552 1510.04 -177.768C1452.9 -174.633 1417.32 -159.348 1366.23 -115.455C1351.85 -103.306 1349.2 -98.9954 1352.61 -94.6846C1358.66 -86.8465 1370.39 -88.022 1381.75 -97.4278C1447.6 -150.727 1454.79 -153.078 1556.6 -153.078C1635.31 -153.47 1672.02 -149.159 1684.14 -139.361C1686.78 -137.01 1707.98 -133.875 1731.06 -132.307C1786.32 -127.996 1786.32 -127.996 1788.21 -75.4812C1788.97 -42.5613 1790.48 -33.5474 1796.54 -26.8851C1806.76 -15.128 1831.73 -15.9119 1856.33 -28.8448C1866.93 -34.3316 1882.45 -41.3855 1890.77 -44.5208C1898.72 -47.6561 1916.89 -57.8458 1930.89 -67.2513C1944.51 -76.657 1966.84 -89.9817 1980.47 -97.0359C1994.09 -104.09 2009.23 -113.496 2014.53 -117.415C2019.83 -121.726 2034.21 -129.956 2046.7 -135.834C2074.7 -149.551 2085.3 -158.565 2088.71 -172.673C2090.98 -182.471 2090.22 -183.255 2079.24 -183.255C2072.81 -183.255 2067.51 -181.687 2067.51 -179.335C2067.51 -177.376 2064.11 -175.417 2059.94 -175.417C2056.16 -175.417 2050.86 -172.281 2048.97 -168.362C2044.43 -159.348 1985.77 -128.388 1971.01 -127.212C1960.79 -126.429 1959.65 -127.605 1957.38 -142.105C1955.87 -150.727 1955.49 -171.889 1956.62 -189.133C1957.76 -210.688 1956.62 -230.675 1952.08 -253.797C1943.76 -296.515 1941.11 -445.046 1941.11 -847.531C1941.11 -1170.46 1941.86 -1228.07 1946.78 -1262.95C1948.68 -1275.88 1950.95 -1300.57 1952.08 -1317.82C1953.22 -1335.06 1957.76 -1364.84 1961.92 -1384.44C1965.71 -1403.64 1969.11 -1431.86 1969.11 -1447.14C1969.11 -1478.1 1974.79 -1499.27 1997.12 -1549.04C2023.61 -1608.22 2083.79 -1683.07 2137.53 -1723.83C2148.91 -1732.4 2161 -1741.7 2169.32 -1748.11L2169.37 -1748.14L2169.38 -1748.15C2173.21 -1751.1 2176.23 -1753.43 2178.02 -1754.79C2189.38 -1763.8 2320.7 -1809.65 2334.7 -1809.65C2339.62 -1809.65 2344.16 -1811.22 2345.68 -1813.18C2349.08 -1819.45 2397.53 -1828.47 2432.72 -1829.64C2546.26 -1833.17 2590.54 -1830.82 2638.98 -1819.84C2665.1 -1813.96 2697.27 -1804.95 2710.89 -1799.86C2775.61 -1775.17 2796.8 -1766.15 2805.88 -1759.1C2811.18 -1754.79 2821.78 -1748.91 2828.97 -1745.77C2836.16 -1742.64 2847.89 -1734.8 2855.08 -1728.53C2862.27 -1722.26 2880.06 -1707.76 2894.44 -1696.39C2909.2 -1685.03 2931.53 -1663.08 2944.4 -1647.8C2966.35 -1622.32 2969.38 -1616.84 2983.38 -1572.16C3000.41 -1517.69 3001.55 -1509.46 2992.08 -1513.77C2955.75 -1529.83 2942.88 -1530.62 2912.23 -1519.65C2873.25 -1505.54 2858.49 -1492.6 2772.96 -1398.55C2734.73 -1356.61 2723.38 -1350.34 2676.45 -1343.29C2637.85 -1337.41 2621.95 -1341.33 2606.44 -1360.14C2597.73 -1370.72 2596.6 -1375.03 2598.11 -1393.06C2600 -1416.57 2610.6 -1431.47 2627.63 -1435.39C2642.39 -1438.52 2656.39 -1431.86 2679.48 -1409.91C2690.83 -1398.94 2703.32 -1390.32 2707.48 -1390.32C2728.68 -1390.32 2721.87 -1453.02 2698.78 -1473.79C2688.18 -1483.2 2683.26 -1484.37 2660.56 -1484.37C2631.79 -1484.37 2620.44 -1479.67 2602.27 -1460.08C2585.24 -1442.05 2574.27 -1414.22 2574.27 -1389.14C2573.89 -1370.72 2575.78 -1365.24 2587.51 -1348.38C2595.08 -1337.41 2601.14 -1327.61 2601.14 -1326.04C2601.14 -1324.87 2595.46 -1323.69 2588.65 -1323.69C2573.13 -1323.69 2562.16 -1315.86 2564.05 -1305.67C2565.18 -1299 2568.97 -1298.22 2600 -1297.04L2634.44 -1295.87L2637.09 -1270.79C2640.12 -1244.53 2637.85 -1227.68 2630.28 -1218.66C2628.01 -1215.53 2617.41 -1209.26 2606.81 -1204.16C2596.6 -1199.46 2576.16 -1185.74 2561.78 -1173.99C2547.77 -1161.84 2529.23 -1150.08 2521.28 -1147.73L2520.84 -1147.59C2515.2 -1145.87 2511.53 -1144.75 2509.46 -1142.28C2505.6 -1137.69 2507.29 -1128.45 2512.11 -1101.99L2512.2 -1101.48C2515.23 -1084.63 2517.88 -1054.85 2517.88 -1035.25C2517.88 -1012.13 2520.53 -989.4 2525.45 -969.413C2529.99 -952.561 2532.64 -936.885 2531.88 -934.533C2531.5 -932.574 2512.96 -945.115 2491.38 -962.75C2424.4 -1016.44 2382.39 -1048.97 2352.11 -1070.13C2336.22 -1081.11 2313.51 -1099.13 2302.16 -1110.11C2290.8 -1121.47 2275.66 -1133.23 2268.47 -1136.76C2261.66 -1140.28 2248.79 -1149.69 2240.09 -1157.53C2231.76 -1165.36 2203.38 -1186.92 2177.27 -1205.34C2151.15 -1224.15 2120.5 -1247.27 2109.14 -1256.68C2074.7 -1284.9 2052.37 -1291.95 2052.37 -1273.92C2052.37 -1267.26 2096.65 -1221.8 2103.84 -1221.8C2105.74 -1221.8 2116.33 -1214.35 2126.93 -1205.34C2156.45 -1179.86 2167.8 -1171.24 2191.65 -1156.35C2203.38 -1148.9 2216.62 -1139.89 2220.79 -1135.97C2224.95 -1132.44 2243.12 -1118.73 2261.66 -1106.19C2279.83 -1093.25 2301.02 -1077.58 2308.97 -1071.7C2316.54 -1065.82 2333.19 -1053.28 2346.06 -1044.27C2368.01 -1028.59 2418.72 -987.832 2452.03 -959.223C2460.73 -951.777 2485.71 -931.006 2507.28 -913.371C2544.37 -883.194 2547.02 -879.667 2553.45 -859.288L2559.89 -837.341L2576.16 -839.693C2600 -843.612 2615.52 -834.206 2660.18 -788.745C2663.18 -785.744 2666.8 -782.112 2670.71 -778.18L2670.85 -778.041C2680.7 -768.14 2692.42 -756.37 2701.05 -747.987C2713.16 -736.23 2724.89 -722.122 2727.16 -716.635C2729.43 -710.757 2731.71 -672.35 2732.08 -623.362C2732.84 -573.199 2734.73 -536.752 2737.38 -532.049C2742.68 -521.467 2751.01 -522.251 2758.2 -533.224C2766.14 -546.157 2763.87 -711.148 2755.55 -731.919C2750.63 -743.676 2706.73 -789.137 2666.23 -824.017C2650.34 -837.733 2653.74 -842.828 2676.45 -839.693C2697.27 -836.95 2704.46 -842.436 2702.56 -860.072L2701.43 -870.653L2648.07 -869.478L2594.33 -868.302L2587.13 -879.667C2571.24 -903.181 2561.02 -941.588 2549.67 -1019.97C2546.64 -1041.52 2541.72 -1071.7 2538.69 -1087.38C2529.61 -1133.23 2536.04 -1140.28 2593.57 -1146.55C2637.47 -1150.86 2692.72 -1144.99 2717.7 -1133.23C2731.33 -1126.57 2741.92 -1124.21 2748.74 -1125.78C2757.06 -1127.74 2760.09 -1126.17 2765.39 -1117.94C2772.96 -1106.19 2790.37 -1104.23 2790.37 -1115.2C2790.37 -1127.74 2730.19 -1182.22 2696.13 -1200.24C2663.96 -1217.1 2660.93 -1222.58 2662.45 -1257.46C2662.83 -1273.92 2664.72 -1289.21 2666.61 -1290.77C2668.12 -1292.34 2713.92 -1291.56 2768.79 -1289.21C2840.32 -1286.07 2875.52 -1286.07 2895.2 -1289.21C2914.5 -1291.95 2935.69 -1291.95 2966.35 -1289.21C3018.95 -1284.5 3033.34 -1287.64 3040.9 -1305.67C3044.31 -1314.29 3045.83 -1338.98 3045.83 -1389.14V-1460.08L3059.83 -1462.43C3067.78 -1463.99 3079.51 -1467.52 3086.32 -1470.27C3093.13 -1473.4 3118.49 -1480.46 3142.33 -1486.33C3202.51 -1501.23 3224.46 -1509.46 3275.55 -1535.71C3323.23 -1560.4 3332.7 -1569.81 3344.81 -1605.47C3353.89 -1632.51 3351.62 -1649.37 3331.18 -1714.81C3313.02 -1772.81 3310.74 -1777.52 3292.2 -1797.11L3272.9 -1818.28L3246.79 -1816.71C3219.92 -1815.14 3208.56 -1808.09 3211.59 -1793.98C3212.72 -1788.1 3215.75 -1787.71 3240.73 -1792.41C3261.17 -1795.94 3282.74 -1777.91 3293.71 -1748.12C3311.88 -1699.53 3307.34 -1643.09 3283.5 -1613.31C3271.39 -1598.81 3219.16 -1571.38 3176.39 -1556.88C3158.6 -1551 3141.2 -1544.73 3137.79 -1542.77C3127.19 -1536.89 3059.07 -1519.65 3047.72 -1519.65C3038.26 -1519.65 3036.74 -1521.21 3034.47 -1535.71C3032.96 -1544.73 3025.01 -1571.38 3017.06 -1594.89C2999.27 -1646.23 2998.9 -1652.11 3012.9 -1655.24C3033.71 -1659.95 3037.5 -1661.91 3060.21 -1678.37C3087.08 -1697.96 3103.35 -1724.22 3098.81 -1739.89C3084.43 -1786.53 3028.04 -1863.74 3015.55 -1852.76C3005.33 -1844.14 3009.49 -1833.56 3030.31 -1812.4C3053.02 -1790.06 3057.18 -1779.09 3054.15 -1752.44C3050.74 -1721.08 3011.39 -1668.18 2991.33 -1668.57C2987.92 -1668.57 2980.73 -1675.23 2975.43 -1683.46C2969.75 -1691.3 2949.7 -1716.38 2930.77 -1738.72L2896.33 -1779.48L2920.56 -1807.3C2955.37 -1847.67 2983.76 -1887.25 3003.44 -1922.13C3019.33 -1950.35 3021.23 -1956.23 3023.5 -1986.4C3026.15 -2023.63 3025.39 -2026.77 3001.55 -2059.3C2989.06 -2076.15 2946.67 -2111.42 2939.1 -2111.42C2937.96 -2111.42 2919.8 -2123.18 2898.98 -2137.68C2863.41 -2162.37 2860 -2163.93 2836.92 -2165.11C2823.29 -2165.5 2809.29 -2164.33 2805.13 -2162.37C2801.34 -2160.02 2790.37 -2147.87 2780.9 -2134.93C2768.42 -2118.08 2763.87 -2109.07 2765.77 -2103.58C2769.55 -2091.04 2778.26 -2094.18 2797.94 -2115.34C2808.15 -2126.31 2818.37 -2134.93 2821.4 -2135.33C2824.05 -2135.33 2830.48 -2136.11 2835.4 -2137.28C2841.46 -2138.46 2847.89 -2135.72 2854.33 -2129.45C2859.62 -2124.35 2871.73 -2115.34 2881.2 -2109.46C2890.66 -2103.19 2911.47 -2084.77 2927.75 -2068.31C2953.1 -2042.44 2956.89 -2036.96 2956.89 -2025.2C2956.51 -1979.35 2919.04 -1900.18 2874.38 -1851.59C2844.49 -1819.06 2843.35 -1819.06 2824.05 -1835.52C2815.34 -1842.97 2800.96 -1853.16 2792.64 -1857.47C2763.5 -1872.75 2729.81 -1897.44 2729.81 -1903.71C2729.81 -1907.24 2734.35 -1923.31 2740.03 -1939.37C2746.47 -1958.58 2750.25 -1977 2750.25 -1993.06C2750.63 -2016.19 2749.87 -2018.93 2738.52 -2029.12C2731.71 -2035.39 2718.84 -2042.44 2710.13 -2044.8C2701.05 -2047.15 2687.8 -2051.46 2680.61 -2054.59C2660.93 -2062.82 2594.33 -2077.32 2589.78 -2074.19C2583.73 -2070.27 2585.62 -2056.94 2592.81 -2053.03C2596.97 -2050.67 2610.22 -2047.54 2622.33 -2045.19C2642.01 -2042.05 2655.64 -2036.57 2680.61 -2021.28C2683.64 -2019.32 2689.32 -2016.97 2692.72 -2015.8C2701.05 -2013.05 2710.13 -1994.63 2714.67 -1971.12C2717.32 -1956.62 2716.95 -1948.39 2712.03 -1934.28C2708.62 -1923.7 2703.7 -1915.47 2701.81 -1915.47C2699.54 -1915.47 2687.43 -1920.17 2674.94 -1925.66C2638.23 -1941.33 2623.84 -1946.04 2591.68 -1951.13C2548.15 -1957.79 2546.64 -1958.97 2549.67 -1983.27C2551.18 -1994.63 2555.72 -2015.01 2559.51 -2029.12C2572.37 -2074.58 2568.21 -2146.69 2549.67 -2206.26C2544.37 -2222.72 2541.72 -2225.86 2521.66 -2236.44C2509.17 -2243.1 2493.66 -2248.59 2486.46 -2248.59ZM3191.53 -1362.88C3190.02 -1396.2 3186.99 -1428.33 3184.72 -1434.6C3179.8 -1446.36 3172.23 -1448.32 3165.42 -1439.7C3162.01 -1435.39 3161.63 -1428.33 3164.66 -1411.48C3169.96 -1382.87 3169.96 -1320.95 3165.04 -1317.82C3163.15 -1316.64 3161.25 -1312.33 3161.25 -1308.41C3161.25 -1304.49 3152.93 -1293.13 3142.33 -1282.94L3123.79 -1264.91H3084.05C3041.28 -1264.91 3040.15 -1264.12 3040.15 -1241.39C3040.15 -1233.95 3043.55 -1227.68 3049.61 -1222.58C3058.31 -1215.53 3063.23 -1214.74 3098.05 -1216.7C3119.25 -1217.49 3140.82 -1220.23 3146.12 -1222.19C3160.12 -1228.07 3181.31 -1257.85 3188.13 -1281.37C3193.42 -1298.61 3193.8 -1312.33 3191.53 -1362.88ZM3412.55 -1119.9C3393.25 -1200.24 3384.92 -1217.49 3359.94 -1232.38C3347.83 -1239.43 3338.75 -1241.39 3313.77 -1241.39C3279.71 -1241.39 3271.76 -1236.69 3285.77 -1225.33C3292.2 -1219.84 3298.26 -1218.66 3310.37 -1220.23C3322.1 -1222.19 3331.18 -1220.62 3343.67 -1214.74C3370.54 -1202.6 3377.35 -1183.78 3381.52 -1112.46C3383.41 -1081.11 3383.79 -1051.32 3382.65 -1046.62C3381.52 -1041.92 3375.08 -1033.68 3368.27 -1028.2C3348.21 -1012.52 3316.8 -1005.86 3262.68 -1005.86C3212.72 -1006.25 3199.1 -1003.51 3185.1 -989.792C3173.37 -978.427 3174.12 -973.332 3188.13 -962.75C3198.72 -955.304 3205.53 -954.129 3251.71 -952.561C3286.9 -951.777 3311.5 -952.953 3329.67 -956.872C3344.43 -960.007 3366.38 -963.534 3378.87 -965.102C3391.73 -966.278 3404.22 -970.197 3408.39 -974.116C3412.55 -977.643 3416.71 -979.994 3418.23 -978.819C3422.77 -975.291 3429.58 -1004.29 3429.58 -1027.81C3429.96 -1040.74 3427.31 -1061.12 3424.28 -1072.88C3421.25 -1084.63 3415.96 -1105.8 3412.55 -1119.9ZM3066.64 -1193.97C3066.64 -1200.64 3064.37 -1206.12 3060.58 -1207.69C3057.18 -1208.87 3054.53 -1209.65 3054.15 -1209.65C3053.77 -1209.26 3049.61 -1208.08 3045.07 -1207.3C3019.71 -1202.2 3000.79 -1159.09 3001.55 -1108.93C3002.68 -1049.36 3013.66 -1012.91 3039.01 -983.913C3050.74 -970.589 3056.8 -967.062 3071.18 -964.71C3085.94 -962.751 3089.73 -963.534 3091.62 -968.629C3094.65 -977.251 3086.7 -986.657 3076.1 -986.657C3062.48 -986.657 3056.42 -1001.16 3048.1 -1055.63C3035.23 -1137.15 3037.88 -1171.24 3057.18 -1178.69C3064.37 -1181.43 3066.64 -1185.35 3066.64 -1193.97ZM2758.58 -1017.23C2763.87 -1034.86 2767.66 -1054.06 2766.9 -1059.94C2765.39 -1074.83 2754.41 -1076.4 2747.6 -1062.29C2744.57 -1056.42 2738.52 -1035.64 2733.98 -1016.05C2729.43 -996.846 2723.38 -974.508 2720.35 -966.67C2714.3 -950.21 2718.08 -941.98 2732.84 -938.453C2743.82 -935.709 2748.74 -945.115 2748.74 -968.237C2748.74 -977.643 2753.28 -999.589 2758.58 -1017.23ZM3068.15 -912.195C3074.59 -912.195 3079.89 -928.655 3076.48 -937.669C3073.83 -944.723 3072.32 -944.723 3054.53 -934.925C3035.23 -924.344 3031.07 -912.979 3021.23 -840.868C3015.55 -800.894 3023.12 -757.001 3042.04 -716.243C3048.85 -700.959 3067.78 -688.81 3097.67 -680.972C3116.97 -675.877 3123.41 -677.837 3123.41 -688.418C3123.41 -693.121 3119.62 -696.256 3113.19 -697.824C3092.75 -702.135 3076.48 -717.419 3067.78 -740.149C3045.45 -797.759 3045.83 -912.195 3068.15 -912.195ZM3295.99 -792.664C3298.26 -816.963 3290.69 -893.776 3283.87 -917.29C3282.74 -920.817 3279.71 -923.952 3277.44 -923.952C3263.06 -923.56 3255.87 -905.533 3255.49 -869.478C3255.11 -832.639 3242.24 -759.745 3234.67 -751.123C3231.27 -747.204 3216.89 -739.366 3202.51 -733.487C3160.88 -716.635 3152.55 -703.703 3169.96 -682.54C3176.77 -674.31 3183.96 -671.174 3200.99 -668.823C3221.81 -666.08 3225.21 -666.864 3244.89 -677.445C3275.93 -694.689 3289.93 -726.825 3295.99 -792.664ZM2156.45 -893.384C2146.23 -895.343 2130.71 -899.654 2122.39 -902.789C2113.68 -905.925 2101.95 -908.276 2095.9 -908.276C2081.52 -907.884 2061.84 -899.262 2058.81 -891.816C2057.67 -888.681 2059.94 -872.221 2064.11 -854.977C2068.65 -834.99 2070.92 -809.124 2071.3 -781.691C2071.3 -738.19 2077.35 -712.324 2087.19 -712.324C2095.14 -712.324 2101.57 -720.554 2101.57 -730.744C2101.57 -746.812 2123.9 -812.651 2132.23 -820.49C2147.75 -834.99 2208.3 -827.544 2212.84 -810.3C2218.14 -791.881 2216.25 -423.883 2210.95 -347.07C2205.65 -274.176 2206.78 -269.473 2227.6 -269.473C2234.03 -269.473 2241.98 -267.122 2245.01 -264.379C2248.42 -261.635 2257.88 -256.933 2265.82 -254.581C2279.45 -250.662 2283.23 -251.446 2307.45 -262.419C2322.21 -268.69 2337.73 -277.312 2341.89 -281.231C2355.9 -294.163 2409.64 -330.218 2438.4 -345.503C2453.92 -354.125 2472.08 -365.098 2478.14 -369.801C2484.57 -374.504 2498.2 -382.734 2508.42 -387.828C2519.01 -392.923 2531.12 -399.585 2536.04 -402.721C2545.5 -408.991 2547.02 -420.356 2539.07 -423.492C2529.99 -427.411 2502.36 -418.397 2485.71 -406.64C2476.63 -399.977 2466.78 -394.882 2464.14 -394.882C2461.49 -394.882 2449.75 -389.396 2438.4 -382.734C2427.05 -376.071 2405.85 -364.314 2391.09 -356.868C2376.71 -349.03 2355.14 -334.921 2343.41 -325.516C2331.3 -315.718 2316.16 -307.488 2308.97 -306.312L2295.72 -303.961L2293.45 -328.651C2292.32 -342.367 2292.32 -449.749 2293.07 -567.32C2293.38 -615.708 2293.7 -661.972 2293.95 -700.401L2293.96 -700.951C2294.33 -755.606 2294.59 -794.297 2294.59 -800.502C2294.21 -826.76 2288.15 -848.315 2279.07 -856.545C2272.64 -862.423 2207.54 -882.018 2156.45 -893.384ZM1397.64 -859.288C1404.83 -865.95 1404.08 -876.14 1396.13 -881.627C1382.5 -891.424 1344.28 -874.964 1330.66 -853.801C1317.79 -834.206 1319.3 -816.179 1334.44 -800.502L1347.31 -787.178L1448.73 -788.354L1549.78 -789.137L1555.46 -799.719C1562.65 -814.611 1559.62 -817.746 1540.32 -813.827C1515.34 -809.125 1365.1 -807.165 1357.15 -811.868C1341.63 -820.49 1340.5 -837.733 1354.12 -851.45C1363.58 -861.64 1383.64 -864.775 1388.18 -856.937C1390.07 -854.193 1393.1 -854.977 1397.64 -859.288ZM2453.16 -795.8C2444.83 -794.232 2439.54 -795.8 2433.48 -801.678C2422.88 -811.868 2381.25 -817.354 2375.2 -809.516C2370.66 -803.638 2364.22 -782.867 2360.82 -762.488C2357.79 -742.893 2364.6 -717.419 2374.44 -711.932C2378.98 -709.581 2402.45 -706.446 2427.43 -704.486C2498.58 -699.391 2512.96 -685.283 2516.74 -616.7C2519.77 -566.144 2522.04 -558.698 2535.66 -560.266L2546.26 -561.441V-655.89C2546.26 -745.244 2545.88 -751.123 2538.69 -759.353C2528.85 -770.718 2516.74 -776.988 2492.52 -782.867C2481.54 -785.218 2470.95 -789.921 2468.68 -792.664C2465.65 -796.192 2460.35 -797.367 2453.16 -795.8ZM2383.09 -656.256V-656.259C2381.73 -667.224 2380.42 -677.709 2379.74 -680.188C2377.47 -687.242 2366.49 -686.067 2363.47 -678.229C2361.95 -674.309 2360.82 -640.998 2360.82 -603.767C2360.82 -541.062 2361.2 -535.968 2368.39 -530.481C2372.55 -526.954 2377.85 -524.995 2379.74 -525.778C2382.01 -526.17 2384.28 -543.414 2385.42 -563.793L2387.31 -600.632H2400.56H2413.8L2414.56 -579.077C2416.07 -545.765 2419.1 -532.832 2425.91 -530.481C2435.37 -526.562 2438.4 -535.184 2438.4 -568.496C2438.4 -601.024 2439.91 -602.983 2458.84 -593.97C2467.16 -590.442 2469.81 -590.834 2476.25 -596.713C2480.41 -600.632 2483.82 -606.118 2483.82 -608.862C2483.82 -614.348 2461.87 -622.187 2447.11 -622.187C2439.16 -622.187 2438.78 -624.146 2437.64 -652.755C2436.51 -679.796 2435.75 -682.932 2428.94 -682.932C2422.13 -682.932 2420.99 -679.796 2419.48 -653.539C2418.34 -637.471 2416.07 -624.146 2413.8 -624.146C2411.91 -624.146 2404.72 -625.714 2397.91 -627.281C2386.55 -630.417 2385.8 -631.984 2383.52 -652.755L2383.09 -656.256ZM3416.33 -628.065C3411.41 -632.768 3397.41 -642.174 3385.68 -648.444C3373.57 -655.106 3359.19 -661.377 3353.89 -662.553C3343.29 -665.296 3327.78 -656.674 3327.78 -647.66C3327.78 -639.038 3342.91 -630.417 3354.27 -632.376C3360.7 -633.944 3370.16 -631.592 3379.62 -626.497C3398.17 -617.092 3399.68 -610.821 3399.68 -552.036C3399.68 -504.615 3394.38 -480.71 3377.35 -453.276C3359.94 -424.667 3344.05 -418.789 3284.25 -418.397C3221.81 -418.005 3205.53 -415.653 3190.4 -405.072C3170.34 -390.963 3171.47 -368.625 3193.04 -358.044C3213.1 -348.246 3257.38 -345.894 3284.25 -353.341C3296.36 -356.868 3318.31 -359.611 3332.7 -359.611C3354.65 -359.611 3362.21 -361.571 3381.14 -371.76C3417.85 -392.139 3421.25 -396.842 3424.28 -432.505C3425.8 -449.357 3426.17 -479.533 3425.04 -499.129C3423.53 -519.508 3424.28 -545.765 3426.55 -559.09C3432.23 -590.834 3428.07 -616.7 3416.33 -628.065ZM3082.54 -613.173C3099.19 -611.997 3109.41 -618.659 3107.51 -629.241C3106 -636.687 3103.73 -637.079 3077.99 -634.335C3052.64 -631.2 3049.61 -629.633 3040.53 -611.213C3030.31 -590.05 3025.01 -548.117 3025.01 -486.196C3025.01 -430.154 3028.79 -406.248 3039.39 -393.315C3046.96 -385.085 3075.34 -371.368 3085.94 -371.368C3096.54 -371.368 3094.65 -381.558 3082.16 -391.355C3073.07 -398.41 3070.8 -403.896 3066.64 -429.37C3061.34 -461.898 3059.83 -581.037 3064.37 -601.415C3067.02 -613.173 3068.15 -613.956 3082.54 -613.173ZM2664.72 -473.655C2705.21 -502.264 2711.65 -508.534 2706.73 -515.197C2699.91 -523.427 2688.56 -520.684 2654.12 -502.264C2636.33 -492.858 2619.68 -485.02 2617.03 -485.02C2613.63 -485.02 2612.49 -480.709 2613.25 -472.479C2614 -463.074 2616.65 -459.155 2624.98 -456.411C2634.06 -453.276 2638.98 -455.236 2664.72 -473.655ZM3313.02 -275.744C3305.07 -294.163 3288.79 -312.975 3274.41 -320.813C3262.68 -326.691 3252.46 -328.259 3219.16 -327.867C3174.12 -327.475 3121.14 -319.637 3105.24 -311.015C3096.16 -306.312 3093.51 -306.312 3081.02 -312.975C3053.77 -327.475 3040.15 -307.88 3037.12 -251.838C3035.23 -211.08 3040.91 -177.376 3052.64 -159.349C3059.83 -148.767 3064.75 -145.632 3085.56 -141.321C3099.19 -138.186 3116.22 -136.618 3123.41 -137.402C3134.38 -138.578 3165.42 -135.442 3266.47 -122.902C3295.61 -118.982 3313.77 -157.781 3299.77 -192.66C3291.07 -214.215 3275.17 -214.607 3253.22 -193.836C3244.14 -185.606 3219.92 -183.255 3121.52 -182.079C3085.94 -181.295 3073.45 -187.566 3066.26 -209.512C3062.48 -221.661 3062.86 -224.013 3070.8 -232.635C3075.72 -238.121 3081.78 -241.256 3084.43 -240.473C3087.08 -239.297 3090.1 -240.081 3091.62 -242.432C3092.75 -244.392 3096.54 -245.176 3099.94 -244.392C3108.27 -241.648 3146.12 -259.676 3152.55 -269.473C3155.58 -273.784 3160.88 -278.879 3165.04 -281.231C3172.61 -285.542 3245.27 -300.826 3258.14 -300.826C3267.6 -300.826 3278.95 -288.677 3289.17 -267.122C3293.34 -258.5 3299.77 -249.094 3302.8 -245.959C3306.2 -243.216 3324.75 -239.297 3344.05 -237.729C3385.3 -233.81 3391.36 -231.851 3385.3 -225.58C3383.03 -223.229 3368.65 -220.877 3353.51 -220.877L3325.88 -220.486V-208.728V-196.971L3352.38 -197.755C3385.3 -198.147 3406.12 -205.593 3415.96 -219.31C3422.77 -228.716 3423.15 -231.459 3418.61 -239.689C3411.79 -253.405 3390.98 -260.851 3358.05 -261.243C3323.23 -261.635 3318.69 -263.203 3313.02 -275.744ZM1541.46 -72.346C1532.75 -79.7923 1519.13 -86.4546 1502.85 -90.3736C1488.85 -94.2928 1475.98 -97.0359 1474.47 -96.6441C1468.79 -95.8602 1437.38 -85.6707 1410.89 -75.4812C1386.67 -66.4673 1379.86 -65.6836 1333.31 -66.4676C1284.48 -67.6431 1281.83 -67.2513 1270.1 -58.2374C1242.85 -37.0748 1251.56 -22.9661 1296.97 -14.7361C1331.41 -8.85771 1375.31 -11.6011 1409.75 -22.1824L1409.79 -22.1927C1423.03 -26.1097 1438.9 -30.8057 1444.95 -32.3719C1451.38 -33.5477 1466.9 -39.0342 1479.77 -44.5208C1511.18 -57.0618 1526.7 -56.6697 1542.21 -42.9532C1566.06 -21.7903 1588.76 -16.6956 1659.54 -17.4795C1725.39 -18.2632 1738.25 -21.0069 1738.25 -34.7234C1738.25 -45.3047 1731.44 -47.2642 1709.49 -42.1695C1699.27 -39.8179 1670.89 -37.8584 1646.29 -37.8584C1604.66 -37.8584 1599.74 -38.6424 1577.79 -49.2239C1564.92 -55.4942 1548.65 -66.0757 1541.46 -72.346ZM3814.85 247.839C3817.88 204.73 3797.44 169.067 3758.46 148.688C3695.64 116.16 3610.1 147.512 3580.96 214.135C3571.5 235.69 3571.5 275.664 3580.96 297.611C3591.18 320.733 3616.16 343.855 3641.14 353.653C3671.04 365.41 3714.56 363.451 3744.08 349.342C3786.09 328.963 3812.2 291.732 3814.85 247.839ZM2413.8 261.164C2423.26 209.04 2430.83 162.796 2430.83 158.093C2430.83 149.863 2430.45 149.863 2326.76 149.863C2246.52 149.863 2221.92 151.039 2220.79 154.566C2218.52 161.62 2204.89 234.906 2167.43 445.75C2152.56 530.223 2133.48 637.127 2121.2 705.9C2118.78 719.446 2116.63 731.513 2114.82 741.637C2103.84 803.166 2095.52 854.505 2096.65 856.073C2097.41 857.641 2145.1 858.425 2202.62 858.033L2307.45 857.249L2312.37 827.856C2313.81 820.251 2317.53 799.388 2322.5 771.543C2328.03 740.558 2335.1 700.928 2342.27 661.297C2353.57 597.8 2361.69 552.253 2368.02 516.767L2368.09 516.382C2377.61 462.964 2383.07 432.375 2389.2 397.546C2389.89 393.738 2390.76 388.887 2391.78 383.21L2392.21 380.81L2392.51 379.13L2393.09 375.864L2393.13 375.67C2398.41 346.213 2406.55 300.811 2413.8 261.164ZM4688.35 183.461C4690.66 170.606 4692.14 162.386 4692.49 160.445L4694.76 149.863H4588.42C4490.78 149.863 4482.45 150.255 4480.56 156.526C4479.42 160.445 4470.72 208.649 4461.26 263.515C4451.79 318.382 4436.28 404.992 4427.19 455.548C4399.95 605.255 4357.18 849.019 4357.18 854.113C4357.18 858.033 4379.13 859.208 4458.61 859.208C4514.24 859.208 4561.93 857.641 4564.2 856.073C4568.74 852.938 4577.06 812.18 4597.5 694.609C4602.42 665.608 4613.4 602.904 4622.1 555.483C4625.7 534.97 4631.29 503.528 4637.63 467.822L4637.72 467.282C4646.02 420.572 4655.6 366.638 4663.73 320.341C4673.92 263.8 4683.21 212.114 4688.35 183.461ZM247.133 437.912C275.895 276.84 295.575 171.418 298.603 160.445C300.495 154.174 294.818 153.782 215.721 153.782H130.946L115.051 238.825C103.771 300.283 91.7092 365.921 79.9984 429.651L79.8531 430.441L79.6152 431.736L79.571 431.976L79.5633 432.018L79.532 432.188C56.841 555.67 35.5257 671.665 23.8428 735.759C13.6245 791.801 4.16292 843.532 2.64909 850.586L0 863.127L188.85 862.344L377.322 861.168L387.919 806.301C393.596 776.125 398.137 748.3 398.516 744.381C398.516 738.11 391.325 737.718 296.332 737.718C212.315 737.718 194.149 736.935 194.149 732.232C194.149 729.488 200.204 695.393 207.395 656.986C214.585 618.188 232.373 519.82 247.133 437.912ZM1580.44 205.513C1572.49 201.203 1549.78 192.973 1530.1 187.486C1489.61 175.729 1413.92 171.026 1373.8 177.296C1290.54 191.013 1222.8 224.325 1169.43 278.408C1093.36 355.221 1057.03 446.534 1057.03 561.362C1057.03 653.067 1083.52 722.042 1142.18 783.179C1171.33 813.748 1181.54 821.586 1214.85 838.829C1265.94 865.087 1299.24 872.925 1361.69 872.925C1411.27 872.925 1460.85 864.695 1474.85 854.113C1479.39 850.586 1486.58 819.626 1501.72 735.759C1513.07 673.054 1522.53 620.147 1522.53 617.404C1522.53 614.661 1509.67 618.972 1491.5 627.985C1404.46 669.919 1329.14 654.635 1298.87 589.187C1289.03 567.632 1287.13 518.252 1295.08 492.779C1315.14 430.074 1371.91 392.451 1438.89 397.938C1471.82 400.681 1499.83 408.519 1531.24 424.196C1543.35 430.074 1553.57 433.601 1554.7 432.425C1555.46 430.858 1563.79 386.573 1573.25 334.058C1582.71 281.151 1591.41 232.555 1592.93 225.501C1595.2 214.135 1594.06 212.568 1580.44 205.513ZM2077.35 528.05C2057.67 459.467 2011.88 410.087 1946.41 386.573C1902.13 370.505 1826.81 368.153 1779.89 381.086C1686.41 406.56 1609.96 484.94 1587.25 578.214C1564.16 672.27 1580.82 747.908 1637.59 806.693C1693.98 865.087 1771.94 886.641 1862.39 869.006C1967.6 848.235 2050.48 769.071 2077.73 663.257C2086.81 628.377 2086.44 559.794 2077.35 528.05ZM3459.86 447.71C3445.85 417.141 3429.2 398.722 3402.33 385.005C3344.81 356.004 3275.55 370.897 3209.32 426.547C3195.32 438.304 3183.96 445.358 3183.96 442.615C3183.96 438.304 3186.99 422.628 3193.42 393.627L3195.32 385.005H3093.89H2992.46L2974.3 485.724C2967.25 524.076 2959.31 568.012 2953.45 600.471L2953.17 602.024C2951.87 609.172 2950.69 615.736 2949.64 621.529C2948.89 625.669 2948.21 629.415 2947.62 632.697L2947.05 635.823C2916.01 805.126 2908.07 852.938 2909.96 855.681C2911.09 857.641 2958.78 859.208 3015.93 859.208H3119.62L3123.03 850.194C3124.92 845.492 3134.01 795.328 3143.85 738.894C3169.2 590.755 3175.26 570.768 3198.72 554.699C3215.37 542.942 3227.48 543.334 3239.6 555.875C3252.08 568.808 3251.71 572.335 3223.7 727.137C3212.35 791.409 3202.88 847.451 3202.88 851.762C3202.88 858.816 3206.67 859.208 3308.47 859.208C3372.43 859.208 3415.2 857.641 3416.71 855.289C3417.85 853.33 3430.34 788.666 3443.96 711.461C3465.91 587.619 3468.94 565.281 3469.32 520.212C3469.7 473.183 3468.94 467.697 3459.86 447.71ZM4088.85 387.356C4079.39 382.262 4062.36 375.991 4051.39 373.64C3922.71 345.423 3793.28 490.427 3793.28 663.257C3793.28 778.084 3846.26 856.465 3934.82 871.749C3984.4 880.371 4027.92 865.479 4068.42 826.68C4081.28 813.748 4092.26 805.126 4092.26 807.085C4092.26 809.045 4089.61 820.018 4086.58 830.991C4083.18 842.356 4081.66 853.33 4082.8 855.289C4084.31 857.641 4123.29 858.817 4183.85 858.033L4283 857.249L4298.9 767.111C4303.92 739.578 4309.41 708.687 4314.08 682.4L4314.12 682.171C4317.87 661.036 4321.1 642.897 4323.12 631.904C4341.28 528.133 4346.22 501.421 4353.72 460.976L4355.67 450.453C4360.59 423.02 4364.75 397.154 4364.75 392.843C4364.75 385.397 4362.1 385.005 4261.05 385.005H4157.35L4154.7 409.303C4152.06 432.034 4146 455.548 4145.62 444.967C4144.87 435.953 4105.88 395.978 4088.85 387.356ZM783.785 430.074C768.647 408.519 757.293 398.722 731.558 384.613C707.715 372.072 645.27 369.721 613.479 380.694C478.748 426.547 398.894 636.215 463.232 776.125C479.127 810.22 514.702 847.843 544.979 861.56C576.769 876.452 622.562 878.803 655.488 867.046C684.629 856.857 705.066 842.748 727.016 818.45C744.426 798.855 744.426 798.855 733.45 838.437C730.801 847.451 729.666 855.681 730.801 856.857C731.936 858.425 767.511 859.208 809.52 859.208H886.347L890.132 838.437C898.836 794.153 969.986 394.019 969.986 389.316C969.986 386.181 949.171 385.005 887.861 385.789L805.357 386.965L801.573 418.317L797.788 449.669L783.785 430.074ZM2882.33 485.724C2855.46 433.209 2809.67 396.762 2750.25 381.086C2714.67 371.68 2641.63 370.897 2606.81 379.519C2594.33 382.654 2567.83 393.235 2548.15 403.425C2517.5 418.709 2507.28 426.547 2478.14 457.115C2424.4 513.157 2405.1 559.01 2401.69 637.783C2398.28 717.339 2412.29 758.097 2458.84 806.693C2507.28 856.857 2564.05 877.628 2640.88 873.317C2688.94 870.966 2717.32 863.911 2754.41 845.492C2884.98 780.828 2945.53 610.742 2882.33 485.724ZM3762.24 491.995C3772.46 435.169 3779.65 388.14 3778.9 386.965C3777.76 385.789 3729.7 385.005 3671.79 385.005H3566.2L3564.31 393.627C3563.18 398.722 3556.36 435.953 3549.55 477.102L3547.86 486.695C3539.84 532.162 3523.5 624.858 3509.44 701.663C3494.68 783.963 3483.7 853.33 3484.84 855.289C3488.62 861.56 3694.5 860.384 3696.77 854.113C3697.91 851.762 3708.88 792.193 3721.37 722.042C3725.96 696.268 3731.32 665.996 3736.76 635.212C3746.14 582.212 3755.78 527.694 3762.24 491.995ZM2171.59 -2016.97C2157.21 -2013.05 2140.56 -2009.52 2134.88 -2009.52C2129.58 -2009.52 2114.06 -2004.04 2100.82 -1997.77C2087.95 -1991.11 2071.3 -1984.83 2064.49 -1983.66C2057.29 -1982.09 2050.86 -1978.96 2050.1 -1976.21C2048.59 -1972.29 2078.87 -1902.54 2084.54 -1896.26C2085.3 -1895.87 2091.73 -1899.4 2098.55 -1904.89C2117.47 -1920.17 2203 -1957.01 2235.55 -1964.46C2246.15 -1966.81 2246.15 -1967.2 2244.63 -1987.97C2241.6 -2026.38 2226.47 -2032.26 2171.59 -2016.97ZM2847.13 -1446.75C2867.19 -1467.91 2883.09 -1480.85 2901.63 -1490.25C2920.55 -1500.05 2932.67 -1503.97 2945.53 -1503.97C2961.81 -1503.97 2965.59 -1502.01 2981.11 -1487.51C2998.14 -1471.44 2998.52 -1469.87 3000.79 -1442.83C3002.68 -1422.06 3001.92 -1412.66 2997.38 -1403.64C2989.43 -1388.36 2961.05 -1358.97 2950.07 -1354.65C2928.12 -1346.03 2907.69 -1355.05 2907.69 -1373.86C2907.69 -1384.05 2928.5 -1406.39 2945.53 -1415.01C2952.35 -1418.53 2955.37 -1423.63 2956.13 -1433.03L2957.26 -1446.36L2931.53 -1444.4C2900.12 -1442.05 2886.12 -1435.78 2875.14 -1418.93C2857.73 -1391.88 2860.76 -1360.14 2883.84 -1335.06L2892.93 -1324.87L2835.02 -1321.73C2803.23 -1320.17 2774.47 -1318.99 2771.44 -1319.38C2768.41 -1319.77 2756.3 -1320.17 2744.95 -1320.17L2724.14 -1319.77L2743.06 -1336.23C2753.66 -1345.64 2766.14 -1358.18 2771.44 -1364.45C2780.53 -1375.43 2787.34 -1382.87 2847.13 -1446.75ZM1810.16 570.375C1775.72 594.281 1767.4 650.715 1795.02 675.797C1820 699.311 1865.42 684.027 1879.8 647.972C1892.67 614.268 1883.58 574.294 1860.87 565.28C1844.6 558.618 1823.41 560.578 1810.16 570.375ZM4008.24 636.214C4008.62 598.983 4027.54 569.591 4054.41 564.104C4088.48 557.442 4114.97 581.74 4114.97 620.146C4114.59 658.161 4092.64 685.594 4059.33 689.121C4025.65 692.648 4007.86 674.229 4008.24 636.214ZM650.19 528.441C626.347 537.063 608.182 555.091 594.557 584.092C582.825 608.39 582.068 613.092 582.068 649.54C582.068 684.027 583.203 690.689 591.529 706.366C605.532 732.231 627.483 743.596 661.544 743.596C720.962 743.205 762.971 699.311 768.269 631.904C771.297 596.633 764.863 573.902 746.318 551.956C722.854 524.522 685.387 515.508 650.19 528.441ZM2601.14 631.513C2601.14 606.823 2614.38 580.565 2632.55 568.808C2640.12 564.105 2651.47 561.362 2663.2 561.362C2678.72 561.362 2683.26 563.321 2694.24 574.686C2705.97 586.836 2707.11 589.971 2707.11 611.133C2707.11 655.419 2682.13 686.771 2646.93 686.771C2616.65 686.771 2601.14 667.96 2601.14 631.513Z" fill="#8E1A1B"/>
</g>
<g clip-path="url(#clip2_1097_1141)">
<path fill-rule="evenodd" clip-rule="evenodd" d="M5315.02 2.04101C5312.37 2.04101 5309.72 1.73101 5309.28 1.266C5308.1 0.0259739 5282.07 -0.439035 5255.88 0.490983C5229.69 1.421 5223.95 3.12603 5217.92 11.9612C5213.8 18.1613 5213.51 29.0115 5217.48 35.3666C5220.13 39.5517 5220.28 39.7067 5222.34 36.7617C5223.81 34.7466 5224.1 31.8016 5223.51 27.4615C5222.92 22.6564 5223.22 20.6414 5225.43 18.6263C5231.6 12.7362 5237.34 11.8062 5263.23 12.2712C5291.77 12.8912 5301.04 13.8212 5307.37 16.7663C5309.72 17.8513 5312.96 19.0913 5314.28 19.5563C5322.37 22.3464 5325.17 51.487 5320.76 84.1926C5320.5 85.9999 5320.27 87.6793 5320.06 89.24L5320.05 89.2615L5320.05 89.2788L5320.05 89.2795C5318.28 102.166 5317.62 106.944 5314.93 108.81C5313.35 109.91 5311.07 109.998 5307.44 110.138C5306.73 110.165 5305.97 110.194 5305.16 110.233C5299.13 110.543 5288.83 109.923 5282.36 108.838C5275.89 107.908 5269.56 107.133 5268.38 107.133C5258.97 107.443 5245.14 108.838 5243.08 109.768C5240.43 110.853 5238.67 106.203 5236.61 92.0977C5235.87 87.4476 5233.96 83.2626 5230.72 79.5425C5226.01 74.1174 5225.43 73.8074 5218.07 74.4274C5204.24 75.6674 5162.46 90.0827 5153.34 96.7478C5145.98 102.328 5140.25 99.0729 5135.24 86.5176C5133.92 83.1076 5128.77 74.7374 5123.77 67.7623C5115.38 56.137 5114.06 55.052 5107.59 53.347C5103.61 52.417 5096.99 51.642 5092.58 51.642C5086.11 51.642 5083.61 52.572 5077.72 56.7571C5073.75 59.7021 5068.16 63.2672 5065.36 64.8172C5062.57 66.3672 5059.63 68.5373 5059.04 69.6223C5058.45 70.8623 5053.45 75.5124 5048 80.0075C5026.82 97.9878 5018.43 109.613 5018.29 121.703C5018.29 128.523 5023.73 136.429 5027.56 134.879C5029.61 134.104 5029.61 133.174 5027.7 125.268C5027.59 124.827 5027.48 124.406 5027.38 124.003L5027.38 123.999C5026.61 120.979 5026.1 118.986 5026.4 117.128C5027 113.524 5030.65 110.424 5041.39 101.314L5042.58 100.303L5043.3 99.6929C5066.25 80.3175 5070.37 77.6825 5078.46 76.7524C5090.96 75.5124 5095.23 77.2174 5104.94 87.2926C5113.91 96.5928 5114.79 98.2979 5133.92 140.924C5139.8 154.254 5139.36 155.339 5122.74 167.429C5119.06 170.064 5112.15 176.264 5107.59 181.069L5099.05 189.75L5085.67 177.349C5076.1 168.669 5069.34 163.709 5062.86 160.919C5057.71 158.749 5052.71 157.044 5051.68 157.044C5045.65 157.044 5029.17 175.799 5022.55 190.37C5020.35 195.485 5015.64 204.165 5012.4 209.745C5006.08 220.285 5005.19 227.105 5009.75 228.035C5011.37 228.345 5013.28 226.33 5015.49 221.835C5017.26 218.115 5023.58 207.42 5029.47 198.12C5039.62 181.689 5044.18 177.194 5050.36 177.194C5054.77 177.194 5067.42 184.324 5072.28 189.285C5074.78 192.075 5077.57 194.245 5078.31 194.245C5080.22 194.245 5088.9 204.63 5088.9 206.955C5088.9 207.885 5087.58 210.21 5085.96 212.07C5082.43 216.1 5073.31 231.755 5071.98 236.095C5071.4 237.8 5070.51 238.886 5069.78 238.421C5068.6 237.645 5065.95 243.536 5066.54 245.706C5066.69 246.481 5066.1 246.946 5065.22 246.946C5064.33 246.946 5063.89 247.876 5064.33 249.116C5064.78 250.201 5064.19 252.681 5062.86 254.541C5060.07 258.881 5058.45 258.571 5030.06 248.496C4999.16 237.645 4982.39 234.08 4963.12 233.925C4948.7 233.77 4946.2 234.235 4939.73 237.645C4935.9 239.661 4931.19 243.381 4929.28 245.706C4921.63 255.316 4913.25 288.641 4911.33 316.697C4910.6 329.097 4910.75 330.492 4914.57 338.087C4918.54 346.148 4924.72 351.108 4934.28 354.208C4941.79 356.533 4944.88 347.388 4937.81 344.443C4928.69 340.567 4926.49 338.862 4923.1 333.592C4918.54 326.307 4917.22 317.937 4920.16 314.837C4921.34 313.597 4923.84 307.397 4925.6 301.042C4931.49 280.581 4940.46 264.771 4949.29 260.121C4955.17 256.866 4971.95 257.176 4983.13 260.896C5000.04 266.321 5029.17 275.156 5035.21 276.551C5038.44 277.481 5044.03 279.186 5047.56 280.581C5053.89 283.061 5053.89 283.216 5053.15 289.262C5052.71 292.672 5051.09 297.322 5049.48 299.492C5047.42 302.592 5046.53 307.397 5045.8 319.022C5044.33 341.342 5043.44 343.823 5037.26 343.978C5034.47 344.133 5025.79 343.203 5017.7 341.962C5002.99 339.792 4989.45 340.877 4982.54 344.908C4977.09 347.853 4974.15 358.238 4974.15 374.513C4974.15 392.338 4976.21 397.919 4983.86 401.329C4995.78 406.599 5016.82 406.599 5016.82 401.329C5016.82 398.384 5010.2 396.059 4999.46 395.439C4993.13 394.974 4989.01 393.733 4986.22 391.563C4982.39 388.463 4982.24 387.843 4982.24 375.133C4982.24 366.608 4982.98 361.028 4984.16 359.788C4986.22 357.618 4996.22 357.618 5022.7 359.633L5039.62 360.873L5039.18 387.998C5038.88 402.879 5038.15 418.999 5037.71 423.649C5036.68 432.019 5036.53 432.174 5031.53 432.949C5025.64 433.879 4985.04 432.174 4971.95 430.624C4961.79 429.384 4958.41 431.554 4960.03 438.064C4961.06 442.559 4967.97 445.969 4982.24 449.225C4992.54 451.55 5026.97 456.51 5035.06 456.82L5039.18 456.975L5038.29 469.375C5037.85 476.195 5036.97 494.175 5036.53 509.211L5035.5 536.801H5025.5C5020.05 536.801 5014.61 537.266 5013.43 537.731C5009.61 539.281 5000.19 528.586 4996.51 518.511L4996.43 518.293C4994.39 512.646 4993.13 509.152 4990.68 506.989C4986.71 503.476 4979.63 503.476 4961.06 503.476C4946.79 503.321 4931.49 502.856 4927.08 502.236C4916.04 500.841 4909.86 503.321 4904.42 511.691C4900.74 517.116 4900.01 519.596 4900.15 526.726C4900.45 536.026 4902.21 538.971 4908.54 540.211C4913.54 541.296 4917.37 537.731 4920.6 529.516C4922.22 525.796 4923.54 524.401 4925.02 525.021C4926.34 525.486 4936.2 525.951 4947.08 525.951H4966.8L4971.36 535.561C4979.74 553.076 4983.71 558.037 4993.72 562.997C5006.22 569.197 5016.96 571.212 5028.29 569.662C5039.91 567.957 5040.65 568.887 5041.68 585.317C5042.86 602.212 5041.38 661.734 5039.91 663.284C5037.71 665.764 5013.14 666.849 4998.43 665.299C4983.86 663.749 4977.68 662.664 4956.5 658.168C4942.67 655.068 4926.34 655.533 4914.72 659.253C4895.15 665.609 4889.71 664.989 4884.41 655.688C4880.59 649.023 4880.73 641.428 4884.85 635.693C4893.39 623.758 4897.06 620.503 4905.74 617.558C4912.22 615.388 4914.57 613.838 4914.57 611.668C4914.57 607.172 4901.92 608.258 4894.56 613.528C4885.29 619.883 4876.91 628.408 4872.35 635.848C4868.67 642.203 4868.23 644.063 4868.23 656.618C4868.23 672.429 4870.58 678.474 4879.12 683.899C4885.59 688.239 4898.53 688.239 4914.13 683.899C4925.16 680.954 4926.63 680.954 4935.02 683.124C4961.79 689.944 4974.3 691.339 5005.78 691.029C5022.85 690.719 5037.71 690.874 5038.88 691.184C5040.8 691.649 5041.09 698.159 5041.09 738.305V784.651L5037.41 785.426C5026.97 787.596 4997.84 789.766 4993.28 788.991C4982.24 786.666 4974.3 773.026 4976.21 759.385C4976.8 755.82 4977.68 742.18 4978.42 728.695C4979.15 715.365 4980.18 703.739 4980.77 702.809C4981.21 701.879 4980.63 700.639 4979.3 700.174C4974.89 698.314 4971.5 704.669 4966.94 723.425C4964.44 733.655 4960.76 744.815 4958.71 748.38C4949.88 764.346 4950.61 776.746 4961.5 794.106C4970.62 808.676 4975.03 810.071 5012.4 811.156C5028.58 811.621 5040.94 812.551 5040.8 813.326C5040.5 814.101 5031.23 815.031 5020.2 815.496C5009.02 815.807 4998.87 816.737 4997.69 817.357C4996.51 817.977 4987.25 818.597 4977.09 818.752L4975.43 818.802C4965.78 819.096 4955.88 819.397 4952.82 819.837C4949.58 820.147 4941.79 820.767 4935.46 821.077C4913.25 822.317 4899.42 828.362 4879.56 845.722C4873.97 850.527 4872.94 852.232 4874.26 853.937C4876.61 857.037 4881.18 856.572 4885.59 852.852C4911.19 831.772 4913.98 830.842 4953.56 830.842C4984.16 830.687 4998.43 832.392 5003.13 836.267C5004.16 837.197 5012.4 838.437 5021.38 839.057C5032.25 839.92 5037.62 840.346 5040.37 843.252C5043.04 846.085 5043.23 851.277 5043.59 861.532C5043.88 874.553 5044.47 878.118 5046.83 880.753C5050.8 885.403 5060.51 885.093 5070.07 879.978C5074.19 877.808 5080.22 875.018 5083.46 873.778C5086.55 872.538 5093.61 868.508 5099.05 864.787C5104.35 861.067 5113.03 855.797 5118.33 853.007C5123.62 850.217 5129.51 846.497 5131.57 844.947C5133.63 843.242 5139.22 839.987 5144.07 837.662C5154.96 832.237 5159.08 828.672 5160.4 823.092C5161.28 819.217 5160.99 818.907 5156.72 818.907C5154.22 818.907 5152.16 819.527 5152.16 820.457C5152.16 821.232 5150.84 822.007 5149.22 822.007C5147.75 822.007 5145.69 823.247 5144.95 824.797C5143.19 828.362 5120.39 840.607 5114.65 841.072C5110.68 841.382 5110.23 840.917 5109.35 835.182C5108.76 831.772 5108.62 823.402 5109.06 816.581C5109.5 808.056 5109.06 800.151 5107.29 791.006C5104.06 774.111 5103.03 715.365 5103.03 556.177C5103.03 428.454 5103.32 405.669 5105.23 391.873C5105.97 386.758 5106.85 376.993 5107.29 370.173C5107.73 363.353 5109.5 351.573 5111.12 343.823C5112.59 336.227 5113.91 325.067 5113.91 319.022C5113.91 306.777 5116.12 298.407 5124.8 278.721C5135.1 255.316 5158.49 225.71 5179.38 209.59C5183.81 206.196 5188.51 202.513 5191.75 199.978L5191.76 199.97C5193.25 198.804 5194.42 197.882 5195.12 197.345C5199.53 193.78 5250.58 175.644 5256.03 175.644C5257.94 175.644 5259.7 175.024 5260.29 174.249C5261.62 171.769 5280.45 168.204 5294.13 167.739C5338.26 166.344 5355.48 167.274 5374.31 171.614C5384.46 173.939 5396.96 177.504 5402.26 179.519C5427.42 189.285 5435.65 192.85 5439.18 195.64C5441.24 197.345 5445.36 199.67 5448.16 200.91C5450.95 202.15 5455.51 205.25 5458.31 207.73C5461.1 210.21 5468.02 215.945 5473.61 220.44C5479.35 224.935 5488.03 233.615 5493.03 239.661C5501.56 249.736 5502.74 251.906 5508.18 269.576C5514.8 291.122 5515.24 294.377 5511.57 292.672C5497.44 286.316 5492.44 286.006 5480.52 290.347C5465.37 295.927 5459.63 301.042 5426.39 338.242C5411.53 354.828 5407.11 357.308 5388.87 360.098C5373.87 362.423 5367.69 360.873 5361.65 353.433C5358.27 349.248 5357.83 347.543 5358.42 340.412C5359.15 331.112 5363.27 325.222 5369.89 323.672C5375.63 322.432 5381.07 325.067 5390.05 333.747C5394.46 338.087 5399.32 341.497 5400.93 341.497C5409.17 341.497 5406.53 316.697 5397.55 308.482C5393.43 304.762 5391.52 304.297 5382.69 304.297C5371.51 304.297 5367.1 306.157 5360.04 313.907C5353.42 321.037 5349.15 332.042 5349.15 341.962C5349 349.248 5349.74 351.418 5354.3 358.083C5357.24 362.423 5359.6 366.298 5359.6 366.918C5359.6 367.383 5357.39 367.848 5354.74 367.848C5348.71 367.848 5344.44 370.948 5345.18 374.978C5345.62 377.613 5347.09 377.923 5359.15 378.388L5372.54 378.853L5373.57 388.773C5374.75 399.159 5373.87 405.824 5370.92 409.389C5370.04 410.629 5365.92 413.109 5361.8 415.124C5357.83 416.984 5349.89 422.409 5344.3 427.059C5338.85 431.864 5331.64 436.514 5328.55 437.444L5328.38 437.497C5326.21 438.174 5324.79 438.616 5323.98 439.575C5322.45 441.383 5323.11 445.026 5324.99 455.536L5325.02 455.735C5326.2 462.4 5327.23 474.18 5327.23 481.93C5327.23 491.075 5328.26 500.066 5330.17 507.971C5331.94 514.636 5332.97 520.836 5332.67 521.766C5332.53 522.541 5325.32 517.581 5316.93 510.606C5290.89 489.37 5274.56 476.505 5262.79 468.135C5256.61 463.795 5247.79 456.665 5243.37 452.325C5238.96 447.829 5233.08 443.179 5230.28 441.784C5227.63 440.389 5222.63 436.669 5219.25 433.569C5216.01 430.469 5204.98 421.944 5194.83 414.659C5184.67 407.219 5172.76 398.074 5168.34 394.353C5154.96 383.193 5146.28 380.403 5146.28 387.533C5146.28 390.168 5163.49 408.149 5166.29 408.149C5167.02 408.149 5171.14 411.094 5175.26 414.659C5186.73 424.734 5191.15 428.144 5200.42 434.034C5204.98 436.979 5210.13 440.544 5211.74 442.094C5213.36 443.489 5220.42 448.915 5227.63 453.875C5234.69 458.985 5242.92 465.177 5246.01 467.508L5246.02 467.51L5246.02 467.515C5248.96 469.84 5255.44 474.8 5260.44 478.365C5268.97 484.565 5288.69 500.686 5301.63 512.001C5305.02 514.946 5314.72 523.161 5323.11 530.136C5337.53 542.071 5338.56 543.466 5341.06 551.526L5343.56 560.207L5349.89 559.277C5359.15 557.727 5365.19 561.447 5382.55 579.427C5383.73 580.628 5385.15 582.085 5386.69 583.661C5390.52 587.577 5395.08 592.232 5398.43 595.547C5403.14 600.197 5407.7 605.777 5408.58 607.948C5409.47 610.273 5410.35 625.463 5410.5 644.838C5410.79 664.679 5411.53 679.094 5412.56 680.954C5414.62 685.139 5417.85 684.829 5420.65 680.489C5423.74 675.374 5422.85 610.118 5419.62 601.902C5417.71 597.252 5400.64 579.272 5384.9 565.477C5378.72 560.052 5380.04 558.037 5388.87 559.277C5396.96 560.362 5399.76 558.192 5399.02 551.216L5398.58 547.031L5377.84 547.496L5356.95 547.961L5354.15 543.466C5347.97 534.166 5344 518.976 5339.59 487.975C5338.41 479.45 5336.5 467.515 5335.32 461.315C5331.79 443.179 5334.29 440.389 5356.65 437.909C5373.72 436.204 5395.2 438.529 5404.91 443.179C5410.2 445.814 5414.32 446.744 5416.97 446.124C5420.21 445.349 5421.38 445.969 5423.44 449.225C5426.39 453.875 5433.15 454.65 5433.15 450.31C5433.15 445.349 5409.76 423.804 5396.52 416.674C5384.02 410.009 5382.84 407.839 5383.43 394.043C5383.57 387.533 5384.31 381.488 5385.05 380.868C5385.63 380.248 5403.44 380.558 5424.77 381.488C5452.57 382.728 5466.25 382.728 5473.9 381.488C5481.41 380.403 5489.65 380.403 5501.56 381.488C5522.01 383.348 5527.6 382.108 5530.54 374.978C5531.87 371.568 5532.46 361.803 5532.46 341.962V313.907L5537.9 312.977C5540.99 312.357 5545.55 310.962 5548.2 309.877C5550.85 308.637 5560.7 305.847 5569.97 303.522C5593.36 297.632 5601.89 294.377 5621.76 283.991C5640.29 274.226 5643.97 270.506 5648.68 256.401C5652.21 245.706 5651.33 239.041 5643.38 213.155C5636.32 190.215 5635.44 188.355 5628.23 180.604L5620.73 172.234L5610.57 172.854C5600.13 173.474 5595.72 176.264 5596.89 181.844C5597.33 184.169 5598.51 184.324 5608.22 182.464C5616.16 181.069 5624.55 188.2 5628.82 199.98C5635.88 219.2 5634.11 241.521 5624.84 253.301C5620.14 259.036 5599.83 269.886 5583.21 275.621C5576.3 277.946 5569.53 280.426 5568.21 281.201C5564.09 283.526 5537.6 290.347 5533.19 290.347C5529.51 290.347 5528.93 289.727 5528.04 283.991C5527.45 280.426 5524.36 269.886 5521.28 260.586C5514.36 240.281 5514.21 237.956 5519.66 236.715C5527.75 234.855 5529.22 234.08 5538.05 227.57C5548.49 219.82 5554.82 209.435 5553.05 203.235C5547.46 184.789 5525.54 154.254 5520.69 158.594C5516.71 162.004 5518.33 166.189 5526.42 174.559C5535.25 183.394 5536.87 187.735 5535.69 198.275C5534.37 210.675 5519.07 231.6 5511.27 231.445C5509.95 231.445 5507.15 228.81 5505.09 225.555C5502.89 222.455 5495.09 212.535 5487.73 203.7L5474.35 187.58L5483.76 176.574C5497.3 160.609 5508.33 144.954 5515.98 131.158C5522.16 119.998 5522.89 117.673 5523.78 105.738C5524.81 91.0127 5524.51 89.7727 5515.24 76.9074C5510.39 70.2423 5493.91 56.292 5490.97 56.292C5490.53 56.292 5483.47 51.642 5475.38 45.9068C5461.55 36.1417 5460.22 35.5216 5451.25 35.0566C5445.95 34.9016 5440.51 35.3666 5438.89 36.1417C5437.42 37.0717 5433.15 41.8768 5429.47 46.9919C5424.62 53.657 5422.85 57.2221 5423.59 59.3921C5425.06 64.3522 5428.45 63.1122 5436.1 54.742C5440.07 50.4019 5444.04 46.9919 5445.22 46.8369C5446.25 46.8369 5448.75 46.5269 5450.66 46.0618C5453.01 45.5968 5455.51 46.6819 5458.02 49.1619C5460.08 51.1769 5464.78 54.742 5468.46 57.0671C5472.14 59.5471 5480.23 66.8323 5486.56 73.3424C5496.41 83.5726 5497.88 85.7426 5497.88 90.3927C5497.74 108.528 5483.17 139.839 5465.81 159.059C5454.19 171.924 5453.75 171.924 5446.25 165.414C5442.86 162.469 5437.27 158.439 5434.04 156.734C5422.71 150.689 5409.61 140.924 5409.61 138.444C5409.61 137.049 5411.38 130.693 5413.59 124.338C5416.09 116.743 5417.56 109.458 5417.56 103.103C5417.71 93.9578 5417.41 92.8727 5413 88.8427C5410.35 86.3626 5405.35 83.5726 5401.96 82.6425C5398.43 81.7125 5393.28 80.0075 5390.49 78.7675C5382.84 75.5124 5356.95 69.7773 5355.18 71.0173C5352.83 72.5674 5353.56 77.8375 5356.36 79.3875C5357.98 80.3175 5363.13 81.5575 5367.83 82.4875C5375.48 83.7276 5380.78 85.8976 5390.49 91.9427C5391.67 92.7177 5393.87 93.6478 5395.2 94.1128C5398.43 95.1978 5401.96 102.483 5403.73 111.783C5404.76 117.518 5404.61 120.773 5402.7 126.353C5401.38 130.538 5399.46 133.794 5398.73 133.794C5397.85 133.794 5393.14 131.933 5388.28 129.763C5374.01 123.563 5368.42 121.703 5355.92 119.688C5339 117.053 5338.41 116.588 5339.59 106.978C5340.18 102.483 5341.94 94.4228 5343.41 88.8427C5348.41 70.8623 5346.8 42.3418 5339.59 18.7813C5337.53 12.2712 5336.5 11.0312 5328.7 6.8461C5323.85 4.21105 5317.81 2.04101 5315.02 2.04101ZM5589.1 352.348C5588.51 339.172 5587.33 326.462 5586.45 323.982C5584.53 319.332 5581.59 318.557 5578.94 321.967C5577.62 323.672 5577.47 326.462 5578.65 333.127C5580.71 344.443 5580.71 368.933 5578.8 370.173C5578.06 370.638 5577.33 372.343 5577.33 373.893C5577.33 375.443 5574.09 379.938 5569.97 383.968L5562.76 391.098H5547.31C5530.69 391.098 5530.25 391.408 5530.25 400.399C5530.25 403.344 5531.57 405.824 5533.93 407.839C5537.31 410.629 5539.22 410.939 5552.76 410.164C5561 409.854 5569.38 408.769 5571.44 407.994C5576.88 405.669 5585.12 393.888 5587.77 384.588C5589.83 377.768 5589.98 372.343 5589.1 352.348ZM5675.01 448.45C5667.51 416.674 5664.27 409.854 5654.56 403.964C5649.85 401.174 5646.32 400.399 5636.61 400.399C5623.37 400.399 5620.28 402.259 5625.73 406.754C5628.23 408.924 5630.58 409.389 5635.29 408.769C5639.85 407.994 5643.38 408.614 5648.24 410.939C5658.68 415.744 5661.33 423.184 5662.95 451.395C5663.68 463.795 5663.83 475.575 5663.39 477.435C5662.95 479.295 5660.45 482.55 5657.8 484.72C5650 490.92 5637.79 493.555 5616.75 493.555C5597.33 493.4 5592.04 494.485 5586.59 499.91C5582.03 504.406 5582.33 506.421 5587.77 510.606C5591.89 513.551 5594.54 514.016 5612.49 514.636C5626.17 514.946 5635.73 514.481 5642.79 512.931C5648.53 511.691 5657.06 510.296 5661.92 509.676C5666.92 509.211 5671.77 507.661 5673.39 506.111C5675.01 504.716 5676.63 503.786 5677.22 504.251C5678.98 505.646 5681.63 494.175 5681.63 484.875C5681.78 479.76 5680.75 471.7 5679.57 467.05C5678.39 462.4 5676.34 454.03 5675.01 448.45ZM5540.55 419.154C5540.55 416.519 5539.66 414.349 5538.19 413.729C5536.87 413.264 5535.84 412.954 5535.69 412.954C5535.55 413.109 5533.93 413.574 5532.16 413.884C5522.3 415.899 5514.95 432.949 5515.24 452.79C5515.68 476.35 5519.95 490.765 5529.81 502.236C5534.37 507.506 5536.72 508.901 5542.31 509.831C5548.05 510.606 5549.52 510.296 5550.26 508.281C5551.43 504.871 5548.34 501.151 5544.23 501.151C5538.93 501.151 5536.58 495.415 5533.34 473.87C5528.34 441.629 5529.37 428.144 5536.87 425.199C5539.66 424.114 5540.55 422.564 5540.55 419.154ZM5420.8 489.06C5422.85 482.085 5424.33 474.49 5424.03 472.165C5423.44 466.275 5419.18 465.655 5416.53 471.235C5415.35 473.56 5413 481.775 5411.23 489.525C5409.47 497.12 5407.11 505.956 5405.94 509.056C5403.58 515.566 5405.05 518.821 5410.79 520.216C5415.06 521.301 5416.97 517.581 5416.97 508.436C5416.97 504.716 5418.74 496.035 5420.8 489.06ZM5541.14 530.601C5543.64 530.601 5545.7 524.091 5544.37 520.526C5543.34 517.736 5542.75 517.736 5535.84 521.611C5528.34 525.796 5526.72 530.291 5522.89 558.812C5520.69 574.622 5523.63 591.982 5530.98 608.103C5533.63 614.148 5540.99 618.953 5552.61 622.053C5560.11 624.068 5562.61 623.293 5562.61 619.108C5562.61 617.248 5561.14 616.008 5558.64 615.388C5550.7 613.683 5544.37 607.638 5540.99 598.647C5532.31 575.862 5532.46 530.601 5541.14 530.601ZM5629.7 577.877C5630.58 568.267 5627.64 537.886 5624.99 528.586C5624.55 527.191 5623.37 525.951 5622.49 525.951C5616.9 526.106 5614.11 533.236 5613.96 547.496C5613.81 562.067 5608.81 590.897 5605.87 594.307C5604.54 595.857 5598.95 598.957 5593.36 601.282C5577.18 607.948 5573.94 613.063 5580.71 621.433C5583.36 624.688 5586.15 625.928 5592.77 626.858C5600.86 627.943 5602.19 627.633 5609.84 623.448C5621.9 616.628 5627.35 603.917 5629.7 577.877ZM5186.73 538.041C5182.76 537.266 5176.73 535.561 5173.49 534.321C5170.11 533.081 5165.55 532.151 5163.2 532.151C5157.61 532.306 5149.96 535.716 5148.78 538.661C5148.34 539.901 5149.22 546.411 5150.84 553.232C5152.6 561.137 5153.49 571.367 5153.63 582.217C5153.63 599.422 5155.99 609.653 5159.81 609.653C5162.9 609.653 5165.4 606.398 5165.4 602.367C5165.4 596.012 5174.08 569.972 5177.32 566.872C5183.35 561.137 5206.89 564.082 5208.65 570.902C5210.71 578.187 5209.98 723.735 5207.92 754.115C5205.86 782.946 5206.3 784.806 5214.39 784.806C5216.89 784.806 5219.98 785.736 5221.16 786.821C5222.48 787.906 5226.16 789.766 5229.25 790.696C5234.55 792.246 5236.02 791.936 5245.43 787.596C5251.17 785.116 5257.2 781.706 5258.82 780.156C5264.26 775.041 5285.15 760.78 5296.34 754.735C5302.37 751.325 5309.43 746.985 5311.78 745.125C5314.28 743.265 5319.58 740.01 5323.55 737.995C5327.67 735.98 5332.38 733.345 5334.29 732.105C5337.97 729.625 5338.56 725.13 5335.47 723.89C5331.94 722.34 5321.2 725.905 5314.72 730.555C5311.19 733.19 5307.37 735.205 5306.34 735.205C5305.31 735.205 5300.75 737.375 5296.34 740.01C5291.92 742.645 5283.68 747.295 5277.95 750.24C5272.36 753.34 5263.97 758.92 5259.41 762.641C5254.7 766.516 5248.82 769.771 5246.02 770.236L5240.87 771.166L5239.99 761.4C5239.55 755.975 5239.55 713.505 5239.84 667.004C5239.96 647.888 5240.08 629.611 5240.19 614.423L5240.19 614.37L5240.19 614.031C5240.33 592.478 5240.43 577.227 5240.43 574.777C5240.28 564.392 5237.93 555.867 5234.4 552.611C5231.9 550.286 5206.59 542.536 5186.73 538.041ZM4891.77 551.526C4894.56 548.891 4894.27 544.861 4891.18 542.691C4885.88 538.816 4871.02 545.326 4865.73 553.696C4860.73 561.447 4861.31 568.577 4867.2 574.777L4872.2 580.047L4911.63 579.582L4950.91 579.272L4953.11 575.087C4955.91 569.197 4954.73 567.957 4947.23 569.507C4937.52 571.367 4879.12 572.142 4876.03 570.282C4869.99 566.872 4869.55 560.052 4874.85 554.627C4878.53 550.596 4886.32 549.356 4888.09 552.456C4888.83 553.542 4890 553.232 4891.77 551.526ZM5302.07 576.637C5298.84 577.257 5296.78 576.637 5294.42 574.312C5290.3 570.282 5274.12 568.112 5271.77 571.212C5270 573.537 5267.5 581.752 5266.18 589.812C5265 597.562 5267.65 607.638 5271.47 609.808C5273.24 610.738 5282.36 611.978 5292.07 612.753C5319.73 614.768 5325.32 620.348 5326.79 647.473C5327.97 667.469 5328.85 670.414 5334.14 669.794L5338.26 669.329V631.973C5338.26 596.632 5338.12 594.307 5335.32 591.052C5331.5 586.557 5326.79 584.077 5317.37 581.752C5313.11 580.822 5308.99 578.962 5308.1 577.877C5306.93 576.482 5304.87 576.017 5302.07 576.637ZM5274.84 631.837C5274.31 627.497 5273.8 623.344 5273.53 622.363C5272.65 619.573 5268.38 620.038 5267.21 623.138C5266.62 624.688 5266.18 637.863 5266.18 652.588C5266.18 677.389 5266.32 679.404 5269.12 681.574C5270.74 682.969 5272.8 683.744 5273.53 683.434C5274.42 683.279 5275.3 676.459 5275.74 668.399L5276.47 653.828H5281.62H5286.77L5287.07 662.354C5287.66 675.529 5288.83 680.644 5291.48 681.574C5295.16 683.124 5296.34 679.714 5296.34 666.539C5296.34 653.673 5296.92 652.898 5304.28 656.463C5307.52 657.858 5308.55 657.703 5311.05 655.378C5312.67 653.828 5313.99 651.658 5313.99 650.573C5313.99 648.403 5305.46 645.303 5299.72 645.303C5296.63 645.303 5296.48 644.528 5296.04 633.213C5295.6 622.518 5295.31 621.278 5292.66 621.278C5290.01 621.278 5289.57 622.518 5288.98 632.903C5288.54 639.258 5287.66 644.528 5286.77 644.528C5286.04 644.528 5283.24 643.908 5280.59 643.288C5276.18 642.048 5275.89 641.428 5275 633.213L5274.84 631.837ZM5676.48 642.978C5674.57 641.118 5669.13 637.398 5664.57 634.918C5659.86 632.283 5654.27 629.803 5652.21 629.338C5648.09 628.253 5642.06 631.663 5642.06 635.228C5642.06 638.638 5647.94 642.048 5652.36 641.273C5654.86 640.653 5658.53 641.583 5662.21 643.598C5669.42 647.318 5670.01 649.798 5670.01 673.049C5670.01 691.804 5667.95 701.259 5661.33 712.109C5654.56 723.425 5648.38 725.75 5625.14 725.905C5600.86 726.06 5594.54 726.99 5588.65 731.175C5580.86 736.755 5581.3 745.59 5589.68 749.775C5597.48 753.65 5614.69 754.58 5625.14 751.635C5629.85 750.24 5638.38 749.155 5643.97 749.155C5652.5 749.155 5655.44 748.38 5662.8 744.35C5677.07 736.29 5678.39 734.43 5679.57 720.325C5680.16 713.66 5680.31 701.724 5679.87 693.974C5679.28 685.914 5679.57 675.529 5680.45 670.259C5682.66 657.703 5681.04 647.473 5676.48 642.978ZM5546.73 648.868C5553.2 649.333 5557.17 646.698 5556.44 642.513C5555.85 639.568 5554.96 639.413 5544.96 640.498C5535.1 641.738 5533.93 642.358 5530.4 649.643C5526.42 658.013 5524.36 674.599 5524.36 699.089C5524.36 721.255 5525.84 730.71 5529.95 735.825C5532.9 739.08 5543.93 744.505 5548.05 744.505C5552.17 744.505 5551.43 740.475 5546.58 736.6C5543.05 733.81 5542.17 731.64 5540.55 721.565C5538.49 708.699 5537.9 661.579 5539.66 653.518C5540.69 648.868 5541.14 648.558 5546.73 648.868ZM5384.31 704.049C5400.05 692.734 5402.55 690.254 5400.64 687.619C5397.99 684.364 5393.58 685.449 5380.19 692.734C5373.28 696.454 5366.8 699.554 5365.77 699.554C5364.45 699.554 5364.01 701.259 5364.3 704.514C5364.6 708.234 5365.63 709.784 5368.86 710.87C5372.39 712.109 5374.31 711.334 5384.31 704.049ZM5636.32 782.326C5633.23 775.041 5626.9 767.601 5621.31 764.5C5616.75 762.175 5612.78 761.555 5599.83 761.71C5582.33 761.865 5561.73 764.966 5555.55 768.376C5552.02 770.236 5550.99 770.236 5546.14 767.601C5535.55 761.865 5530.25 769.616 5529.07 791.781C5528.34 807.901 5530.54 821.232 5535.1 828.362C5537.9 832.547 5539.81 833.787 5547.9 835.492C5553.2 836.732 5559.82 837.352 5562.61 837.042C5566.88 836.577 5578.94 837.817 5618.22 842.777C5629.55 844.327 5636.61 828.982 5631.17 815.186C5627.79 806.661 5621.61 806.506 5613.08 814.721C5609.54 817.977 5600.13 818.907 5561.88 819.372C5548.05 819.682 5543.2 817.202 5540.4 808.521C5538.93 803.716 5539.08 802.786 5542.17 799.376C5544.08 797.206 5546.43 795.966 5547.46 796.276C5548.49 796.741 5549.67 796.431 5550.26 795.501C5550.7 794.726 5552.17 794.416 5553.49 794.726C5556.73 795.811 5571.44 788.681 5573.94 784.806C5575.12 783.101 5577.18 781.086 5578.8 780.156C5581.74 778.451 5609.99 772.406 5614.99 772.406C5618.67 772.406 5623.08 777.211 5627.05 785.736C5628.67 789.146 5631.17 792.866 5632.35 794.106C5633.67 795.191 5640.88 796.741 5648.38 797.361C5664.42 798.911 5666.77 799.686 5664.42 802.166C5663.54 803.096 5657.95 804.026 5652.06 804.026L5641.32 804.181V808.831V813.481L5651.62 813.171C5664.42 813.016 5672.51 810.071 5676.34 804.646C5678.98 800.926 5679.13 799.841 5677.36 796.586C5674.72 791.161 5666.63 788.216 5653.83 788.061C5640.29 787.906 5638.53 787.286 5636.32 782.326ZM4947.67 862.772C4944.29 859.827 4938.99 857.192 4932.67 855.642C4927.22 854.092 4922.22 853.007 4921.63 853.162C4919.43 853.472 4907.21 857.502 4896.92 861.532C4887.5 865.097 4884.85 865.407 4866.76 865.097C4847.78 864.632 4846.75 864.787 4842.19 868.352C4831.6 876.723 4834.98 882.303 4852.63 885.558C4866.02 887.883 4883.09 886.798 4896.48 882.613L4896.49 882.609L4896.53 882.597L4896.53 882.597L4896.54 882.592C4901.68 881.047 4907.81 879.2 4910.16 878.583C4912.66 878.118 4918.69 875.948 4923.69 873.778C4935.9 868.818 4941.93 868.972 4947.97 874.398C4957.23 882.768 4966.06 884.783 4993.57 884.473C5019.17 884.163 5024.17 883.078 5024.17 877.653C5024.17 873.468 5021.52 872.693 5012.99 874.708C5009.02 875.638 4997.98 876.413 4988.42 876.413C4972.24 876.413 4970.33 876.103 4961.79 871.918C4956.79 869.438 4950.47 865.252 4947.67 862.772ZM5831.39 989.41C5832.57 972.359 5824.63 958.254 5809.47 950.194C5785.05 937.329 5751.81 949.729 5740.48 976.08C5736.8 984.605 5736.8 1000.41 5740.48 1009.1C5744.45 1018.24 5754.16 1027.39 5763.87 1031.26C5775.49 1035.91 5792.41 1035.14 5803.88 1029.56C5820.21 1021.5 5830.37 1006.77 5831.39 989.41ZM5286.77 994.68C5290.45 974.065 5293.39 955.774 5293.39 953.914C5293.39 950.659 5293.25 950.659 5252.94 950.659C5221.75 950.659 5212.19 951.124 5211.74 952.519C5210.86 955.309 5205.57 984.295 5191 1067.69C5185.22 1101.09 5177.81 1143.37 5173.03 1170.57L5172.91 1171.29C5172.02 1176.36 5171.22 1180.89 5170.55 1184.71C5166.29 1209.05 5163.05 1229.35 5163.49 1229.97C5163.78 1230.59 5182.32 1230.9 5204.68 1230.75L5245.43 1230.44L5247.35 1218.81C5247.9 1215.81 5249.35 1207.57 5251.28 1196.56L5251.28 1196.55L5251.29 1196.51C5253.43 1184.26 5256.18 1168.6 5258.97 1152.94C5263.26 1128.39 5266.37 1110.62 5268.81 1096.73L5268.97 1095.82L5268.98 1095.76L5268.98 1095.74L5269 1095.62L5269.01 1095.59C5272.71 1074.48 5274.83 1062.39 5277.21 1048.62C5277.59 1046.49 5278.11 1043.52 5278.74 1039.97L5278.74 1039.95L5278.75 1039.88L5278.77 1039.76L5278.78 1039.72L5278.79 1039.66L5278.8 1039.61C5280.85 1027.95 5283.98 1010.2 5286.77 994.68ZM6170.95 963.931C6171.85 958.856 6172.42 955.611 6172.56 954.844L6173.44 950.659H6132.1C6094.14 950.659 6090.91 950.814 6090.17 953.294C6089.73 954.844 6086.35 973.909 6082.67 995.61C6078.99 1017.31 6072.96 1051.57 6069.43 1071.56C6058.84 1130.77 6042.21 1227.18 6042.21 1229.2C6042.21 1230.75 6050.74 1231.21 6081.64 1231.21C6103.26 1231.21 6121.8 1230.59 6122.68 1229.97C6124.45 1228.73 6127.69 1212.61 6135.63 1166.11C6137.54 1154.64 6141.81 1129.84 6145.19 1111.09C6146.59 1102.98 6148.76 1090.56 6151.22 1076.44C6154.46 1057.91 6158.2 1036.48 6161.38 1018.09C6165.22 996.395 6168.73 976.51 6170.76 964.993L6170.85 964.518L6170.95 963.931ZM4444.54 1064.59C4455.72 1000.88 4463.37 959.184 4464.54 954.844C4465.28 952.364 4463.07 952.209 4432.33 952.209H4399.37L4393.19 985.845C4388.76 1010.44 4384.01 1036.74 4379.4 1062.22C4370.58 1111.1 4362.28 1157.02 4357.74 1182.39C4353.77 1204.55 4350.09 1225.01 4349.5 1227.8L4348.47 1232.76L4421.88 1232.45L4495.14 1231.99L4499.26 1210.29C4501.47 1198.35 4503.24 1187.35 4503.38 1185.8C4503.38 1183.32 4500.59 1183.16 4463.66 1183.16C4431 1183.16 4423.94 1182.85 4423.94 1180.99C4423.94 1179.91 4426.29 1166.42 4429.09 1151.23C4431.88 1135.89 4438.8 1096.98 4444.54 1064.59ZM4962.82 972.669C4959.73 970.964 4950.91 967.709 4943.26 965.539C4927.52 960.889 4898.09 959.029 4882.5 961.509C4850.13 966.934 4823.8 980.11 4803.06 1001.5C4773.49 1031.88 4759.36 1068 4759.36 1113.41C4759.36 1149.68 4769.66 1176.96 4792.46 1201.14C4803.79 1213.23 4807.76 1216.33 4820.71 1223.15C4840.57 1233.54 4853.52 1236.64 4877.79 1236.64C4897.06 1236.64 4916.34 1233.38 4921.78 1229.2C4923.54 1227.8 4926.34 1215.56 4932.22 1182.39C4936.64 1157.59 4940.32 1136.66 4940.32 1135.58C4940.32 1134.49 4935.31 1136.2 4928.25 1139.76C4894.42 1156.35 4865.14 1150.3 4853.37 1124.42C4849.55 1115.89 4848.81 1096.36 4851.9 1086.29C4859.7 1061.49 4881.76 1046.61 4907.8 1048.78C4920.6 1049.86 4931.49 1052.96 4943.7 1059.16C4948.41 1061.49 4952.38 1062.88 4952.82 1062.42C4953.11 1061.8 4956.35 1044.28 4960.03 1023.51C4963.71 1002.59 4967.09 983.365 4967.68 980.575C4968.56 976.08 4968.12 975.46 4962.82 972.669ZM5155.99 1100.24C5148.34 1073.11 5130.54 1053.58 5105.09 1044.28C5087.87 1037.93 5058.6 1037 5040.35 1042.11C5004.02 1052.19 4974.3 1083.19 4965.47 1120.08C4956.5 1157.28 4962.97 1187.19 4985.04 1210.44C5006.96 1233.54 5037.26 1242.06 5072.43 1235.09C5113.32 1226.87 5145.54 1195.56 5156.13 1153.71C5159.66 1139.92 5159.52 1112.79 5155.99 1100.24ZM5693.4 1068.46C5687.96 1056.37 5681.48 1049.09 5671.04 1043.66C5648.68 1032.19 5621.76 1038.08 5596.01 1060.09C5590.57 1064.74 5586.15 1067.53 5586.15 1066.45C5586.15 1064.74 5587.33 1058.54 5589.83 1047.07L5590.57 1043.66H5551.14H5511.71L5504.65 1083.5C5501.91 1098.67 5498.82 1116.06 5496.54 1128.9C5495.52 1134.68 5494.65 1139.54 5494.06 1142.86C5482 1209.82 5478.91 1228.73 5479.64 1229.82C5480.08 1230.59 5498.62 1231.21 5520.83 1231.21H5561.14L5562.47 1227.65C5563.2 1225.79 5566.73 1205.95 5570.56 1183.63C5580.42 1125.04 5582.77 1117.13 5591.89 1110.78C5598.36 1106.13 5603.07 1106.28 5607.78 1111.24C5612.63 1116.36 5612.49 1117.75 5601.6 1178.98C5597.19 1204.4 5593.51 1226.56 5593.51 1228.27C5593.51 1231.06 5594.98 1231.21 5634.55 1231.21C5659.42 1231.21 5676.04 1230.59 5676.63 1229.66C5677.07 1228.89 5681.93 1203.31 5687.22 1172.78C5695.75 1123.8 5696.93 1114.96 5697.08 1097.14C5697.23 1078.54 5696.93 1076.37 5693.4 1068.46ZM5937.91 1044.59C5934.23 1042.58 5927.61 1040.1 5923.34 1039.17C5873.32 1028.01 5823.01 1085.36 5823.01 1153.71C5823.01 1199.13 5843.61 1230.13 5878.03 1236.17C5897.3 1239.58 5914.22 1233.69 5929.96 1218.35C5934.96 1213.23 5939.23 1209.82 5939.23 1210.6C5939.23 1211.37 5938.2 1215.71 5937.02 1220.05C5935.7 1224.55 5935.11 1228.89 5935.55 1229.66C5936.14 1230.59 5951.29 1231.06 5974.83 1230.75L6013.38 1230.44L6019.56 1194.79C6021.51 1183.9 6023.64 1171.68 6025.46 1161.28L6025.47 1161.2C6026.93 1152.84 6028.19 1145.66 6028.97 1141.31C6036.03 1100.27 6037.95 1089.71 6040.87 1073.71L6041.62 1069.55C6043.54 1058.7 6045.15 1048.47 6045.15 1046.76C6045.15 1043.82 6044.12 1043.66 6004.84 1043.66H5964.53L5963.5 1053.27C5962.47 1062.26 5960.12 1071.56 5959.97 1067.38C5959.68 1063.81 5944.53 1048 5937.91 1044.59ZM4653.15 1061.49C4647.26 1052.96 4642.85 1049.09 4632.84 1043.51C4623.58 1038.55 4599.3 1037.62 4586.94 1041.96C4534.57 1060.09 4503.53 1143.02 4528.54 1198.35C4534.72 1211.84 4548.55 1226.72 4560.32 1232.14C4572.67 1238.03 4590.47 1238.96 4603.27 1234.31C4614.6 1230.28 4622.55 1224.7 4631.08 1215.09L4631.08 1215.09L4631.08 1215.09L4631.08 1215.09C4634.07 1211.67 4635.74 1209.76 4636.3 1210.04C4637.01 1210.4 4635.96 1214.26 4633.58 1223C4632.55 1226.56 4632.11 1229.82 4632.55 1230.28C4632.99 1230.9 4646.82 1231.21 4663.15 1231.21H4693.01L4694.49 1223C4697.87 1205.48 4725.53 1047.23 4725.53 1045.37C4725.53 1044.13 4717.44 1043.66 4693.6 1043.97L4661.53 1044.44L4660.06 1056.84L4658.59 1069.24L4653.15 1061.49ZM5468.9 1083.5C5458.46 1062.73 5440.66 1048.31 5417.56 1042.11C5403.73 1038.39 5375.34 1038.08 5361.8 1041.49C5356.95 1042.73 5346.65 1046.92 5339 1050.95C5327.08 1056.99 5323.11 1060.09 5311.78 1072.18C5290.89 1094.35 5283.39 1112.48 5282.07 1143.64C5280.74 1175.1 5286.18 1191.22 5304.28 1210.44C5323.11 1230.28 5345.18 1238.5 5375.04 1236.79C5393.73 1235.86 5404.76 1233.07 5419.18 1225.79C5469.93 1200.21 5493.47 1132.94 5468.9 1083.5ZM5810.95 1085.98C5814.92 1063.5 5817.71 1044.9 5817.42 1044.44C5816.98 1043.97 5798.29 1043.66 5775.79 1043.66H5734.74L5734 1047.07C5733.56 1049.09 5730.91 1063.81 5728.27 1080.09L5727.61 1083.89L5727.59 1083.96C5724.47 1101.98 5718.13 1138.57 5712.67 1168.9C5706.94 1201.45 5702.67 1228.89 5703.11 1229.66C5704.58 1232.14 5784.61 1231.68 5785.49 1229.2C5785.94 1228.27 5790.2 1204.71 5795.06 1176.96C5796.84 1166.76 5798.93 1154.77 5801.05 1142.58L5801.07 1142.44L5801.08 1142.41L5801.12 1142.17L5801.15 1141.97C5804.76 1121.22 5808.46 1099.95 5810.95 1085.98ZM5192.62 93.6477C5187.03 95.1977 5180.56 96.5927 5178.35 96.5927C5176.29 96.5927 5170.26 98.7628 5165.11 101.243C5160.11 103.878 5153.63 106.358 5150.99 106.823C5148.19 107.443 5145.69 108.683 5145.39 109.768C5144.81 111.318 5156.58 138.909 5158.78 141.389C5159.08 141.544 5161.58 140.149 5164.23 137.979C5171.58 131.933 5204.83 117.363 5217.48 114.418C5221.6 113.488 5221.6 113.333 5221.01 105.118C5219.84 89.9276 5213.95 87.6025 5192.62 93.6477ZM5455.22 319.177C5463.02 310.807 5469.2 305.692 5476.4 301.972C5483.76 298.097 5488.47 296.546 5493.47 296.546C5499.8 296.546 5501.27 297.322 5507.3 303.057C5513.92 309.412 5514.07 310.032 5514.95 320.727C5515.68 328.942 5515.39 332.662 5513.63 336.227C5510.54 342.272 5499.5 353.898 5495.24 355.603C5486.7 359.013 5478.76 355.448 5478.76 348.007C5478.76 343.977 5486.85 335.142 5493.47 331.732C5496.12 330.337 5497.3 328.322 5497.59 324.602L5498.03 319.332L5488.03 320.107C5475.82 321.037 5470.37 323.517 5466.11 330.182C5459.34 340.877 5460.52 353.433 5469.49 363.353L5473.02 367.383L5450.51 368.623C5438.15 369.243 5426.97 369.708 5425.8 369.553C5424.62 369.398 5419.91 369.243 5415.5 369.243L5407.41 369.398L5414.76 362.888C5418.88 359.168 5423.74 354.208 5425.8 351.728C5429.33 347.387 5431.98 344.442 5455.22 319.177ZM5052.12 1116.98C5038.74 1126.43 5035.5 1148.75 5046.24 1158.67C5055.95 1167.97 5073.6 1161.93 5079.19 1147.67C5084.19 1134.34 5080.66 1118.53 5071.84 1114.96C5065.51 1112.33 5057.27 1113.1 5052.12 1116.98ZM5906.57 1143.02C5906.72 1128.29 5914.07 1116.67 5924.52 1114.5C5937.76 1111.86 5948.06 1121.47 5948.06 1136.66C5947.91 1151.7 5939.38 1162.55 5926.43 1163.94C5913.34 1165.34 5906.42 1158.05 5906.57 1143.02ZM4601.21 1100.39C4591.95 1103.8 4584.88 1110.93 4579.59 1122.4C4575.03 1132.01 4574.73 1133.87 4574.73 1148.29C4574.73 1161.93 4575.17 1164.56 4578.41 1170.76C4583.85 1180.99 4592.39 1185.49 4605.63 1185.49C4628.72 1185.33 4645.05 1167.97 4647.11 1141.31C4648.29 1127.36 4645.79 1118.37 4638.58 1109.69C4629.46 1098.84 4614.9 1095.28 4601.21 1100.39ZM5359.6 1141.16C5359.6 1131.39 5364.74 1121.01 5371.81 1116.36C5374.75 1114.5 5379.16 1113.41 5383.72 1113.41C5389.75 1113.41 5391.52 1114.19 5395.79 1118.68C5400.35 1123.49 5400.79 1124.73 5400.79 1133.1C5400.79 1150.61 5391.08 1163.01 5377.4 1163.01C5365.63 1163.01 5359.6 1155.57 5359.6 1141.16Z" fill="#8E1A1B"/>
</g>
</g>
<defs>
<clipPath id="clip0_1097_1141">
<rect width="5690" height="904" fill="white"/>
</clipPath>
<clipPath id="clip1_1097_1141">
<rect width="4695" height="747" fill="white" transform="translate(0 132)"/>
</clipPath>
<clipPath id="clip2_1097_1141">
<rect width="858" height="904" fill="white" transform="translate(4832)"/>
</clipPath>
</defs>
</svg>
