<svg width="1073" height="1042" viewBox="0 0 1073 1042" fill="none" xmlns="http://www.w3.org/2000/svg">
<g clip-path="url(#clip0_626_371)">
<path fill-rule="evenodd" clip-rule="evenodd" d="M572.645 47.2019C569.635 47.2019 566.625 46.8675 566.123 46.3658C564.786 45.028 535.187 44.5264 505.422 45.5297C475.657 46.533 469.135 48.3725 462.279 57.9041C457.597 64.5929 457.262 76.2984 461.777 83.1545C464.787 87.6695 464.954 87.8367 467.296 84.6595C468.968 82.4856 469.302 79.3084 468.633 74.6262C467.964 69.4424 468.299 67.2685 470.807 65.0946C477.83 58.7402 484.352 57.7369 513.783 58.2385C546.224 58.9074 556.759 59.9107 563.95 63.0879C566.625 64.2585 570.304 65.5963 571.809 66.0979C581.006 69.1079 584.183 100.546 579.167 135.829C578.876 137.795 578.611 139.62 578.365 141.316C576.373 155.036 575.618 160.237 572.667 162.306C570.865 163.57 568.245 163.666 564.025 163.82C563.223 163.849 562.364 163.881 561.441 163.922C554.585 164.257 542.88 163.588 535.522 162.417C528.164 161.414 520.974 160.578 519.636 160.578C508.934 160.913 493.215 162.417 490.874 163.421C487.864 164.591 485.857 159.575 483.516 144.358C482.68 139.341 480.506 134.826 476.827 130.813C471.476 124.96 470.807 124.625 462.446 125.294C446.727 126.632 399.236 142.184 388.869 149.374C380.508 155.394 373.986 151.883 368.3 138.338C366.795 134.659 360.943 125.629 355.257 118.104C345.726 105.562 344.221 104.392 336.863 102.552C332.348 101.549 324.823 100.713 319.806 100.713C312.448 100.713 309.606 101.716 302.917 106.231C298.402 109.408 292.047 113.254 288.87 114.927C285.693 116.599 282.349 118.94 281.68 120.11C281.011 121.448 275.325 126.465 269.138 131.314C245.058 150.712 235.527 163.254 235.359 176.297C235.359 183.655 241.547 192.183 245.894 190.511C248.235 189.675 248.235 188.671 246.062 180.143C245.983 179.846 245.906 179.558 245.831 179.278L245.695 178.774C244.825 175.542 244.249 173.401 244.579 171.41C245.225 167.501 249.361 164.17 261.616 154.3L262.703 153.425L263.787 152.551C289.874 131.649 294.556 128.806 303.753 127.803C317.967 126.465 322.816 128.304 333.853 139.174C344.053 149.207 345.057 151.046 366.795 197.032C373.484 211.413 372.983 212.584 354.087 225.627C349.906 228.47 342.047 235.159 336.863 240.343L327.164 249.707L311.947 236.329C301.077 226.965 293.385 221.614 286.027 218.604C280.175 216.263 274.489 214.423 273.319 214.423C266.463 214.423 247.734 234.657 240.209 250.376C237.7 255.894 232.349 265.259 228.671 271.279C221.48 282.65 220.477 290.007 225.661 291.011C227.5 291.345 229.674 289.171 232.182 284.322C234.189 280.309 241.379 268.77 248.068 258.737C259.606 241.012 264.79 236.162 271.814 236.162C276.83 236.162 291.211 243.854 296.73 249.205C299.572 252.215 302.75 254.557 303.586 254.557C305.76 254.557 315.626 265.76 315.626 268.269C315.626 269.272 314.121 271.78 312.281 273.787C308.268 278.135 297.9 295.024 296.395 299.706C295.726 301.546 294.723 302.716 293.887 302.215C292.549 301.379 289.539 307.733 290.208 310.074C290.375 310.91 289.706 311.412 288.703 311.412C287.7 311.412 287.198 312.415 287.7 313.753C288.201 314.923 287.532 317.599 286.027 319.606C282.85 324.288 281.011 323.953 248.737 313.084C213.621 301.379 194.557 297.532 172.651 297.365C156.264 297.198 153.421 297.7 146.063 301.379C141.715 303.552 136.364 307.566 134.19 310.074C125.495 320.442 115.963 356.394 113.789 386.661C112.953 400.039 113.12 401.544 117.468 409.738C121.983 418.434 129.007 423.785 139.876 427.129C148.404 429.637 151.916 419.771 143.889 416.594C133.521 412.414 131.013 410.574 127.167 404.889C121.983 397.029 120.478 387.999 123.823 384.655C125.16 383.317 128.003 376.628 130.01 369.772C136.699 347.699 146.899 330.642 156.932 325.626C163.621 322.114 182.685 322.448 195.393 326.462C214.624 332.315 247.734 341.846 254.59 343.351C258.269 344.354 264.623 346.194 268.636 347.699C275.827 350.374 275.827 350.542 274.991 357.063C274.489 360.742 272.65 365.759 270.81 368.1C268.469 371.444 267.466 376.628 266.63 389.17C264.958 413.25 263.954 415.925 256.931 416.092C253.754 416.26 243.888 415.256 234.69 413.919C217.968 411.577 202.584 412.748 194.725 417.096C188.537 420.273 185.193 431.477 185.193 449.035C185.193 468.266 187.534 474.286 196.23 477.964C209.774 483.65 233.687 483.65 233.687 477.964C233.687 474.787 226.162 472.279 213.955 471.61C206.765 471.108 202.082 469.771 198.905 467.429C194.557 464.085 194.39 463.416 194.39 449.704C194.39 440.507 195.226 434.487 196.564 433.149C198.905 430.808 210.276 430.808 240.376 432.982L259.606 434.32L259.105 463.583C258.77 479.637 257.934 497.028 257.433 502.044C256.262 511.074 256.095 511.241 250.409 512.078C243.72 513.081 197.567 511.241 182.685 509.569C171.146 508.232 167.3 510.573 169.14 517.596C170.31 522.445 178.17 526.124 194.39 529.636C206.096 532.144 245.225 537.495 254.423 537.83L259.105 537.997L258.101 551.375C257.6 558.732 256.596 578.13 256.095 594.351L254.924 624.116H243.553C237.366 624.116 231.179 624.618 229.841 625.119C225.493 626.792 214.791 615.253 210.611 604.384L210.521 604.149C208.252 598.199 206.827 594.464 204.174 592.119C199.698 588.163 191.727 588.163 170.31 588.163C154.09 587.996 136.699 587.494 131.682 586.826C119.14 585.321 112.117 587.996 105.93 597.026C101.749 602.879 100.913 605.554 101.081 613.247C101.415 623.28 103.422 626.457 110.612 627.795C116.298 628.965 120.645 625.119 124.324 616.257C126.164 612.243 127.669 610.738 129.341 611.407C130.846 611.909 142.05 612.41 154.424 612.41H176.832L182.016 622.778C191.547 641.674 196.062 647.025 207.433 652.376C221.647 659.065 233.854 661.239 246.73 659.567C259.941 657.727 260.777 658.731 261.948 676.456C263.285 694.683 261.613 758.896 259.941 760.569C257.433 763.244 229.507 764.415 212.784 762.743C196.23 761.07 189.206 759.9 165.126 755.05C149.408 751.706 130.846 752.208 117.635 756.221C95.395 763.077 89.2078 762.408 83.1878 752.375C78.8401 745.184 79.0073 736.99 83.6895 730.803C93.3883 717.927 97.5689 714.416 107.435 711.238C114.793 708.897 117.468 707.225 117.468 704.884C117.468 700.035 103.087 701.205 94.7261 706.891C84.1911 713.747 74.6595 722.944 69.4757 730.971C65.2951 737.827 64.7934 739.833 64.7934 753.378C64.7934 770.435 67.469 776.956 77.1678 782.809C84.5256 787.491 99.2411 787.491 116.967 782.809C129.508 779.632 131.18 779.632 140.712 781.973C171.146 789.331 185.36 790.836 221.146 790.501C240.543 790.167 257.433 790.334 258.77 790.669C260.944 791.17 261.279 798.194 261.279 841.504V891.503L257.098 892.339C245.225 894.68 212.116 897.021 206.932 896.185C194.39 893.677 185.36 878.961 187.534 864.246C188.203 860.4 189.206 845.684 190.042 831.136C190.878 816.755 192.049 804.214 192.718 803.21C193.22 802.207 192.551 800.869 191.046 800.367C186.029 798.361 182.183 805.217 176.999 825.451C174.156 836.487 169.976 848.527 167.635 852.373C157.601 869.597 158.437 882.975 170.812 901.704C181.18 917.422 186.196 918.927 228.671 920.098C247.065 920.6 261.111 921.603 260.944 922.439C260.61 923.275 250.075 924.279 237.533 924.78C224.824 925.115 213.286 926.118 211.948 926.787C210.611 927.456 200.076 928.125 188.537 928.292L186.638 928.347H186.638C175.671 928.663 164.423 928.988 160.946 929.462C157.267 929.797 148.404 930.466 141.214 930.8C115.963 932.138 100.244 938.66 77.6695 957.388C71.3151 962.572 70.1446 964.412 71.6495 966.251C74.3251 969.596 79.509 969.094 84.5256 965.081C113.622 942.338 116.799 941.335 161.782 941.335C196.564 941.168 212.784 943.007 218.136 947.188C219.306 948.191 228.671 949.529 238.871 950.198H238.872C251.45 951.146 257.548 951.605 260.618 954.892C263.507 957.985 263.716 963.582 264.121 974.445C264.456 988.492 265.125 992.338 267.8 995.18C272.315 1000.2 283.352 999.863 294.221 994.344C298.904 992.003 305.76 988.993 309.438 987.655C312.95 986.318 320.977 981.97 327.164 977.957C333.184 973.943 343.05 968.258 349.07 965.248C355.09 962.238 361.779 958.224 364.12 956.552C366.461 954.713 372.815 951.201 378.334 948.693C390.708 942.84 395.39 938.994 396.895 932.974C397.899 928.794 397.564 928.459 392.715 928.459C389.872 928.459 387.531 929.128 387.531 930.131C387.531 930.967 386.026 931.803 384.186 931.803C382.514 931.803 380.173 933.141 379.337 934.813C377.33 938.66 351.411 951.87 344.889 952.372C340.374 952.706 339.873 952.205 338.869 946.017C338.201 942.338 338.033 933.308 338.535 925.951C339.037 916.754 338.535 908.225 336.528 898.359C332.849 880.132 331.679 816.755 331.679 645.019C331.679 507.228 332.013 482.647 334.187 467.764C335.023 462.246 336.027 451.711 336.528 444.353C337.03 436.995 339.037 424.286 340.876 415.925C342.548 407.731 344.053 395.691 344.053 389.17C344.053 375.959 346.562 366.929 356.428 345.692C368.133 320.442 394.721 288.502 418.467 271.111C423.505 267.447 428.857 263.47 432.536 260.735C434.23 259.476 435.569 258.481 436.36 257.901C441.376 254.055 499.402 234.49 505.589 234.49C507.763 234.49 509.77 233.821 510.439 232.985C511.944 230.309 533.348 226.463 548.9 225.962C599.066 224.457 618.631 225.46 640.035 230.142C651.574 232.651 665.787 236.497 671.807 238.67C700.402 249.205 709.767 253.052 713.78 256.062C716.121 257.901 720.803 260.409 723.98 261.747C727.158 263.085 732.342 266.429 735.519 269.105C738.696 271.78 746.555 277.968 752.91 282.817C759.431 287.666 769.297 297.031 774.983 303.552C784.682 314.422 786.02 316.763 792.207 335.826C799.732 359.07 800.233 362.582 796.053 360.742C780 353.886 774.314 353.552 760.769 358.234C743.545 364.254 737.024 369.772 699.232 409.905C682.342 427.798 677.326 430.474 656.59 433.483C639.534 435.992 632.51 434.32 625.654 426.293C621.808 421.778 621.306 419.939 621.975 412.246C622.812 402.213 627.494 395.859 635.019 394.186C641.54 392.849 647.728 395.691 657.928 405.056C662.945 409.738 668.463 413.417 670.302 413.417C679.667 413.417 676.657 386.661 666.456 377.799C661.774 373.785 659.6 373.284 649.567 373.284C636.858 373.284 631.842 375.29 623.815 383.651C616.29 391.344 611.44 403.216 611.44 413.919C611.273 421.778 612.109 424.119 617.293 431.31C620.638 435.992 623.313 440.172 623.313 440.841C623.313 441.343 620.805 441.845 617.795 441.845C610.939 441.845 606.089 445.189 606.926 449.537C607.427 452.38 609.099 452.714 622.812 453.216L638.029 453.717L639.199 464.419C640.537 475.623 639.534 482.814 636.189 486.66C635.186 487.998 630.504 490.673 625.822 492.847C621.306 494.854 612.277 500.707 605.922 505.723C599.735 510.907 591.541 515.924 588.029 516.927L587.835 516.984C585.302 517.732 583.668 518.215 582.761 519.303C581.114 521.279 581.864 525.253 583.976 536.444L584.016 536.659C585.354 543.85 586.524 556.559 586.524 564.92C586.524 574.786 587.695 584.485 589.869 593.013C591.876 600.203 593.046 606.892 592.712 607.896C592.544 608.732 584.351 603.38 574.819 595.856C545.221 572.946 526.659 559.067 513.281 550.037C506.258 545.355 496.225 537.662 491.208 532.98C486.192 528.131 479.503 523.114 476.325 521.609C473.316 520.104 467.63 516.091 463.784 512.746C460.105 509.402 447.563 500.205 436.025 492.345C424.487 484.319 410.942 474.453 405.925 470.439C390.708 458.4 380.842 455.39 380.842 463.082C380.842 465.924 400.407 485.322 403.584 485.322C404.42 485.322 409.102 488.499 413.785 492.345C426.828 503.215 431.845 506.894 442.38 513.248C447.563 516.425 453.416 520.271 455.256 521.944C457.095 523.449 465.122 529.301 473.316 534.653C481.342 540.171 490.707 546.86 494.218 549.368C497.563 551.876 504.92 557.227 510.606 561.073C520.305 567.762 542.712 585.153 557.428 597.361C561.274 600.538 572.311 609.4 581.842 616.925C598.23 629.802 599.4 631.307 602.243 640.002L605.086 649.366L612.277 648.363C622.812 646.691 629.668 650.704 649.4 670.102C650.737 671.391 652.347 672.954 654.09 674.645L654.105 674.66L654.108 674.662C658.463 678.888 663.642 683.914 667.46 687.493C672.811 692.51 677.995 698.53 678.998 700.871C680.001 703.379 681.005 719.767 681.172 740.669C681.506 762.074 682.342 777.625 683.513 779.632C685.854 784.147 689.533 783.813 692.71 779.13C696.222 773.612 695.218 703.212 691.54 694.349C689.366 689.332 669.968 669.935 652.075 655.052C645.052 649.199 646.557 647.025 656.59 648.363C665.787 649.534 668.965 647.193 668.129 639.668L667.627 635.153L644.049 635.654L620.303 636.156L617.126 631.307C610.103 621.273 605.588 604.886 600.571 571.441C599.233 562.244 597.059 549.368 595.722 542.679C591.708 523.114 594.551 520.104 619.969 517.429C639.366 515.589 663.781 518.098 674.817 523.114C680.837 525.957 685.52 526.96 688.53 526.291C692.208 525.455 693.546 526.124 695.887 529.636C699.232 534.653 706.924 535.489 706.924 530.806C706.924 525.455 680.336 502.212 665.286 494.519C651.072 487.329 649.734 484.988 650.403 470.105C650.57 463.082 651.406 456.56 652.243 455.891C652.911 455.222 673.145 455.557 697.392 456.56C728.997 457.898 744.549 457.898 753.244 456.56C761.773 455.39 771.137 455.39 784.682 456.56C807.926 458.567 814.28 457.229 817.624 449.537C819.129 445.858 819.798 435.323 819.798 413.919V383.651L825.986 382.648C829.497 381.979 834.681 380.474 837.691 379.304C840.701 377.966 851.905 374.956 862.44 372.448C889.028 366.093 898.727 362.582 921.302 351.378C942.372 340.843 946.552 336.829 951.903 321.612C955.917 310.074 954.913 302.884 945.883 274.958C937.857 250.209 936.853 248.202 928.66 239.841L920.131 230.811L908.593 231.48C896.72 232.149 891.704 235.159 893.041 241.179C893.543 243.687 894.881 243.854 905.917 241.848C914.947 240.343 924.479 248.035 929.328 260.744C937.355 281.479 935.348 305.559 924.813 318.268C919.462 324.455 896.386 336.161 877.49 342.348C869.63 344.856 861.938 347.532 860.433 348.368C855.751 350.876 825.651 358.234 820.634 358.234C816.454 358.234 815.785 357.565 814.782 351.378C814.113 347.532 810.601 336.161 807.09 326.127C799.23 304.221 799.063 301.713 805.25 300.375C814.447 298.369 816.119 297.532 826.153 290.509C838.025 282.148 845.216 270.944 843.209 264.255C836.855 244.356 811.939 211.413 806.421 216.096C801.906 219.774 803.745 224.289 812.942 233.319C822.976 242.851 824.815 247.533 823.477 258.904C821.972 272.282 804.581 294.857 795.718 294.69C794.213 294.69 791.036 291.847 788.695 288.335C786.187 284.991 777.324 274.289 768.963 264.757L753.746 247.366L764.448 235.493C779.832 218.269 792.374 201.38 801.07 186.497C808.093 174.457 808.929 171.949 809.932 159.073C811.103 143.187 810.768 141.849 800.233 127.97C794.715 120.779 775.986 105.729 772.642 105.729C772.14 105.729 764.114 100.713 754.916 94.5256C739.198 83.9906 737.693 83.3217 727.492 82.8201C721.472 82.6529 715.285 83.1545 713.446 83.9906C711.773 84.994 706.924 90.1778 702.743 95.6961C697.225 102.887 695.218 106.733 696.055 109.074C697.727 114.425 701.573 113.087 710.268 104.057C714.783 99.375 719.298 95.6961 720.636 95.5289C721.807 95.5289 724.649 95.1945 726.823 94.6928C729.499 94.1911 732.342 95.3617 735.184 98.0372C737.525 100.211 742.877 104.057 747.057 106.566C751.238 109.241 760.435 117.1 767.625 124.124C778.829 135.16 780.501 137.501 780.501 142.518C780.334 162.083 763.779 195.862 744.047 216.597C730.837 230.477 730.335 230.477 721.807 223.453C717.961 220.276 711.606 215.928 707.927 214.089C695.051 207.567 680.168 197.032 680.168 194.357C680.168 192.852 682.175 185.996 684.683 179.14C687.526 170.946 689.198 163.086 689.198 156.23C689.366 146.364 689.031 145.194 684.015 140.846C681.005 138.17 675.319 135.16 671.473 134.157C667.46 133.154 661.607 131.314 658.43 129.977C649.734 126.465 620.303 120.278 618.296 121.615C615.621 123.288 616.457 128.973 619.634 130.645C621.474 131.649 627.327 132.987 632.678 133.99C641.373 135.328 647.393 137.669 658.43 144.19C659.767 145.026 662.276 146.03 663.781 146.531C667.46 147.702 671.473 155.561 673.48 165.595C674.65 171.782 674.483 175.294 672.309 181.314C670.804 185.828 668.63 189.34 667.794 189.34C666.791 189.34 661.44 187.333 655.921 184.992C639.701 178.304 633.346 176.297 619.133 174.123C599.902 171.28 599.233 170.779 600.571 160.411C601.24 155.561 603.247 146.866 604.919 140.846C610.604 121.448 608.765 90.6795 600.571 65.2618C598.23 58.2385 597.059 56.9007 588.197 52.3858C582.678 49.543 575.822 47.2019 572.645 47.2019ZM884.179 425.122C883.51 410.909 882.172 397.196 881.169 394.521C878.995 389.504 875.65 388.668 872.64 392.347C871.135 394.186 870.968 397.196 872.306 404.387C874.647 416.594 874.647 443.015 872.473 444.353C871.637 444.855 870.801 446.694 870.801 448.366C870.801 450.038 867.122 454.888 862.44 459.236L854.246 466.928H836.688C817.792 466.928 817.29 467.262 817.29 476.961C817.29 480.138 818.795 482.814 821.471 484.988C825.317 487.998 827.491 488.332 842.875 487.496C852.239 487.162 861.771 485.991 864.112 485.155C870.299 482.647 879.664 469.938 882.674 459.904C885.015 452.547 885.182 446.694 884.179 425.122ZM981.836 528.8C973.308 494.519 969.629 487.162 958.592 480.807C953.241 477.797 949.228 476.961 938.191 476.961C923.141 476.961 919.63 478.968 925.817 483.817C928.66 486.158 931.335 486.66 936.686 485.991C941.87 485.155 945.883 485.824 951.402 488.332C963.274 493.516 966.284 501.543 968.124 531.977C968.96 545.355 969.127 558.063 968.625 560.07C968.124 562.077 965.281 565.588 962.271 567.93C953.408 574.618 939.529 577.461 915.616 577.461C893.543 577.294 887.523 578.465 881.336 584.317C876.152 589.167 876.486 591.341 882.674 595.856C887.356 599.033 890.366 599.534 910.767 600.203C926.318 600.538 937.188 600.036 945.214 598.364C951.736 597.026 961.435 595.521 966.953 594.852C972.639 594.351 978.157 592.678 979.997 591.006C981.836 589.501 983.675 588.498 984.344 588.999C986.351 590.504 989.361 578.13 989.361 568.097C989.528 562.578 988.358 553.883 987.02 548.866C985.682 543.85 983.341 534.82 981.836 528.8ZM828.996 497.195C828.996 494.352 827.992 492.011 826.32 491.342C824.815 490.84 823.645 490.506 823.477 490.506C823.31 490.673 821.471 491.175 819.464 491.509C808.26 493.683 799.899 512.078 800.233 533.482C800.735 558.9 805.585 574.451 816.788 586.826C821.972 592.511 824.648 594.016 831.002 595.019C837.524 595.856 839.196 595.521 840.032 593.347C841.37 589.668 837.858 585.655 833.176 585.655C827.156 585.655 824.481 579.468 820.802 556.224C815.116 521.442 816.287 506.894 824.815 503.717C827.992 502.546 828.996 500.874 828.996 497.195ZM692.877 572.612C695.218 565.087 696.891 556.893 696.556 554.385C695.887 548.03 691.038 547.361 688.028 553.381C686.69 555.89 684.015 564.752 682.008 573.113C680.001 581.307 677.326 590.839 675.988 594.183C673.312 601.207 674.985 604.718 681.506 606.223C686.356 607.394 688.53 603.38 688.53 593.514C688.53 589.501 690.536 580.137 692.877 572.612ZM829.665 617.427C832.507 617.427 834.848 610.404 833.343 606.558C832.173 603.548 831.504 603.548 823.645 607.728C815.116 612.243 813.277 617.093 808.929 647.861C806.421 664.918 809.765 683.647 818.126 701.038C821.136 707.56 829.497 712.743 842.708 716.088C851.236 718.262 854.079 717.426 854.079 712.911C854.079 710.904 852.407 709.566 849.564 708.897C840.534 707.058 833.343 700.536 829.497 690.837C819.631 666.256 819.798 617.427 829.665 617.427ZM930.332 668.43C931.335 658.062 927.991 625.287 924.981 615.253C924.479 613.748 923.141 612.41 922.138 612.41C915.784 612.578 912.606 620.27 912.439 635.654C912.272 651.373 906.586 682.476 903.242 686.155C901.737 687.827 895.383 691.172 889.028 693.68C870.634 700.871 866.955 706.389 874.647 715.419C877.657 718.931 880.834 720.268 888.359 721.272C897.556 722.442 899.061 722.108 907.757 717.593C921.469 710.235 927.656 696.523 930.332 668.43ZM426.828 625.454C422.313 624.618 415.457 622.778 411.778 621.44C407.932 620.103 402.748 619.099 400.072 619.099C393.718 619.267 385.023 622.945 383.685 626.123C383.183 627.46 384.186 634.484 386.026 641.841C388.033 650.37 389.036 661.406 389.203 673.112C389.203 691.673 391.879 702.71 396.226 702.71C399.738 702.71 402.581 699.198 402.581 694.851C402.581 687.995 412.447 659.901 416.126 656.557C422.982 650.37 449.737 653.547 451.744 660.905C454.085 668.764 453.249 825.785 450.908 858.56C448.567 889.664 449.068 891.67 458.266 891.67C461.108 891.67 464.62 892.674 465.958 893.844C467.463 895.015 471.643 897.021 475.155 898.025C481.175 899.697 482.847 899.362 493.549 894.68C500.071 892.005 506.927 888.326 508.766 886.654C514.954 881.135 538.699 865.751 551.408 859.229C558.264 855.55 566.291 850.868 568.966 848.862C571.809 846.855 577.829 843.343 582.344 841.169C587.026 838.996 592.377 836.153 594.551 834.815C598.732 832.139 599.4 827.29 595.889 825.952C591.876 824.28 579.668 828.126 572.311 833.143C568.297 835.986 563.95 838.159 562.779 838.159C561.608 838.159 556.425 840.501 551.408 843.343C546.391 846.186 537.027 851.203 530.505 854.38C524.151 857.724 514.619 863.744 509.435 867.758C504.084 871.938 497.395 875.45 494.218 875.951L488.365 876.955L487.362 866.42C486.86 860.567 486.86 814.748 487.195 764.582C487.331 744.105 487.468 724.519 487.582 708.201L487.584 707.823C487.748 684.365 487.864 667.743 487.864 665.085C487.697 653.881 485.021 644.684 481.008 641.173C478.165 638.664 449.403 630.303 426.828 625.454ZM91.5489 640.002C94.7261 637.159 94.3916 632.811 90.88 630.47C84.86 626.29 67.9707 633.313 61.9507 642.343C56.2652 650.704 56.9341 658.396 63.6229 665.085L69.3084 670.771L114.124 670.269L158.772 669.935L161.28 665.42C164.457 659.065 163.12 657.727 154.591 659.4C143.555 661.406 77.1678 662.242 73.6562 660.236C66.8001 656.557 66.2984 649.199 72.3184 643.346C76.4989 638.999 85.3617 637.661 87.3684 641.005C88.2044 642.176 89.5422 641.841 91.5489 640.002ZM557.93 667.092C554.251 667.761 551.91 667.092 549.234 664.584C544.552 660.236 526.157 657.895 523.482 661.239C521.475 663.747 518.633 672.61 517.128 681.306C515.79 689.667 518.8 700.536 523.148 702.877C525.154 703.881 535.522 705.218 546.559 706.055C577.996 708.228 584.351 714.248 586.023 743.512C587.361 765.084 588.364 768.261 594.384 767.592L599.066 767.09V726.79C599.066 688.663 598.899 686.155 595.722 682.644C591.374 677.794 586.023 675.119 575.321 672.61C570.471 671.607 565.789 669.6 564.786 668.43C563.448 666.925 561.107 666.423 557.93 667.092ZM526.968 726.633C526.367 721.954 525.791 717.48 525.489 716.422C524.485 713.412 519.636 713.914 518.298 717.258C517.629 718.931 517.128 733.144 517.128 749.03C517.128 775.786 517.295 777.96 520.472 780.301C522.311 781.806 524.653 782.642 525.489 782.308C526.492 782.14 527.495 774.783 527.997 766.087L528.833 750.368H534.686H540.539L540.873 759.565C541.542 773.779 542.88 779.297 545.89 780.301C550.07 781.973 551.408 778.294 551.408 764.08C551.408 750.201 552.077 749.365 560.438 753.211C564.117 754.716 565.287 754.549 568.13 752.04C569.97 750.368 571.474 748.027 571.474 746.857C571.474 744.515 561.776 741.171 555.254 741.171C551.742 741.171 551.575 740.335 551.073 728.128C550.572 716.589 550.237 715.252 547.227 715.252C544.217 715.252 543.716 716.589 543.047 727.793C542.545 734.649 541.542 740.335 540.539 740.335C539.702 740.335 536.525 739.666 533.515 738.997C528.499 737.659 528.164 736.99 527.161 728.128L527.081 727.507L526.968 726.633ZM983.508 738.663C981.334 736.656 975.147 732.643 969.963 729.967C964.612 727.124 958.258 724.449 955.917 723.947C951.234 722.777 944.378 726.456 944.378 730.302C944.378 733.98 951.067 737.659 956.084 736.823C958.927 736.154 963.107 737.158 967.288 739.332C975.482 743.345 976.15 746.02 976.15 771.104C976.15 791.337 973.809 801.538 966.284 813.243C958.592 825.451 951.569 827.959 925.148 828.126C897.556 828.293 890.366 829.297 883.677 833.812C874.814 839.832 875.316 849.363 884.848 853.878C893.71 858.059 913.275 859.062 925.148 855.885C930.499 854.38 940.198 853.209 946.552 853.209C956.251 853.209 959.596 852.373 967.957 848.026C984.177 839.33 985.682 837.323 987.02 822.106C987.689 814.916 987.856 802.04 987.354 793.679C986.685 784.983 987.02 773.779 988.023 768.094C990.531 754.549 988.692 743.512 983.508 738.663ZM836.019 745.017C843.377 745.519 847.892 742.676 847.056 738.161C846.387 734.984 845.383 734.817 834.012 735.987C822.808 737.325 821.471 737.994 817.457 745.853C812.942 754.883 810.601 772.776 810.601 799.197C810.601 823.11 812.273 833.31 816.956 838.828C820.3 842.34 832.842 848.193 837.524 848.193C842.206 848.193 841.37 843.845 835.852 839.664C831.838 836.654 830.835 834.313 828.996 823.444C826.655 809.565 825.986 758.729 827.992 750.034C829.163 745.017 829.665 744.683 836.019 745.017ZM651.406 804.548C669.299 792.341 672.142 789.665 669.968 786.822C666.958 783.311 661.941 784.481 646.724 792.341C638.865 796.354 631.507 799.698 630.337 799.698C628.832 799.698 628.33 801.538 628.664 805.05C628.999 809.063 630.169 810.735 633.848 811.906C637.861 813.243 640.035 812.407 651.406 804.548ZM937.857 888.995C934.345 881.135 927.155 873.109 920.8 869.764C915.616 867.256 911.101 866.587 896.386 866.754C876.486 866.922 853.075 870.266 846.052 873.945C842.039 875.951 840.868 875.951 835.35 873.109C823.31 866.922 817.29 875.283 815.952 899.195C815.116 916.586 817.624 930.967 822.808 938.66C825.986 943.175 828.16 944.512 837.357 946.352C843.377 947.69 850.902 948.358 854.079 948.024C858.928 947.522 872.64 948.86 917.289 954.211C930.165 955.883 938.191 939.328 932.004 924.446C928.158 915.249 921.135 915.081 911.436 923.944C907.422 927.456 896.72 928.459 853.243 928.961C837.524 929.295 832.006 926.62 828.828 917.255C827.156 912.071 827.323 911.068 830.835 907.389C833.009 905.048 835.684 903.71 836.855 904.045C838.025 904.546 839.363 904.212 840.032 903.209C840.534 902.373 842.206 902.038 843.711 902.373C847.39 903.543 864.112 895.851 866.955 891.67C868.293 889.831 870.634 887.657 872.473 886.654C875.818 884.814 907.924 878.293 913.61 878.293C917.79 878.293 922.807 883.477 927.322 892.674C929.161 896.353 932.004 900.366 933.342 901.704C934.847 902.874 943.041 904.546 951.569 905.215C969.796 906.887 972.472 907.724 969.796 910.399C968.793 911.402 962.438 912.406 955.749 912.406L943.542 912.573V917.59V922.606L955.248 922.272C969.796 922.105 978.993 918.927 983.341 913.075C986.351 909.061 986.518 907.891 984.512 904.379C981.502 898.526 972.304 895.349 957.756 895.182C942.372 895.015 940.365 894.346 937.857 888.995ZM155.093 975.783C151.247 972.606 145.227 969.763 138.036 968.091C131.849 966.418 126.164 965.248 125.495 965.415C122.987 965.749 109.107 970.097 97.4017 974.445C86.6995 978.291 83.6895 978.625 63.1213 978.291C41.5497 977.789 40.3791 977.957 35.1952 981.803C23.1553 990.833 27.0014 996.853 47.068 1000.36C62.2851 1002.87 81.6828 1001.7 96.9 997.187C102.753 995.515 109.776 993.508 112.452 992.839C115.294 992.338 122.15 989.997 127.836 987.655C141.715 982.304 148.571 982.472 155.427 988.324C165.962 997.354 175.996 999.528 207.266 999.194C236.363 998.859 242.048 997.689 242.048 991.836C242.048 987.321 239.038 986.485 229.339 988.659C224.824 989.662 212.283 990.498 201.413 990.498C183.019 990.498 180.845 990.164 171.146 985.649C165.461 982.973 158.27 978.458 155.093 975.783ZM1159.59 1112.4C1160.93 1094.01 1151.9 1078.79 1134.68 1070.1C1106.92 1056.22 1069.13 1069.59 1056.25 1098.02C1052.07 1107.22 1052.07 1124.28 1056.25 1133.64C1060.76 1143.51 1071.8 1153.37 1082.84 1157.55C1096.05 1162.57 1115.28 1161.73 1128.32 1155.71C1146.88 1147.02 1158.42 1131.13 1159.59 1112.4ZM540.539 1118.09C544.719 1095.85 548.063 1076.12 548.063 1074.11C548.063 1070.6 547.896 1070.6 502.078 1070.6C466.627 1070.6 455.757 1071.1 455.256 1072.6C454.252 1075.61 448.232 1106.88 431.677 1196.85C425.116 1232.87 416.689 1278.45 411.263 1307.8L411.258 1307.82C410.187 1313.62 409.233 1318.77 408.434 1323.1C403.584 1349.36 399.905 1371.26 400.407 1371.93C400.741 1372.6 421.811 1372.93 447.229 1372.77L493.549 1372.43L495.723 1359.89C496.356 1356.65 497.999 1347.75 500.193 1335.88L500.194 1335.87C502.637 1322.65 505.762 1305.74 508.934 1288.82C513.893 1261.91 517.467 1242.55 520.254 1227.46L520.309 1227.16C524.537 1204.26 526.951 1191.18 529.669 1176.28C530.099 1173.97 530.694 1170.77 531.407 1166.93L531.418 1166.87L531.433 1166.79L531.463 1166.63L531.494 1166.46C533.83 1153.88 537.376 1134.79 540.539 1118.09ZM1545.52 1085.1C1546.56 1079.52 1547.22 1075.95 1547.38 1075.11L1548.38 1070.6H1501.39C1458.25 1070.6 1454.57 1070.76 1453.73 1073.44C1453.23 1075.11 1449.39 1095.68 1445.21 1119.09C1441.03 1142.5 1434.17 1179.46 1430.16 1201.03C1418.12 1264.91 1399.22 1368.92 1399.22 1371.09C1399.22 1372.77 1408.92 1373.27 1444.04 1373.27C1468.62 1373.27 1489.69 1372.6 1490.69 1371.93C1492.7 1370.59 1496.38 1353.2 1505.41 1303.04C1507.58 1290.66 1512.43 1263.91 1516.28 1243.67C1517.85 1235.01 1520.28 1221.78 1523.05 1206.75L1523.13 1206.33C1526.8 1186.33 1531.06 1163.19 1534.67 1143.34C1538.98 1120.23 1542.93 1099.02 1545.25 1086.53L1545.48 1085.34L1545.52 1085.1ZM-416.804 1193.51C-404.096 1124.78 -395.4 1079.79 -394.062 1075.11C-393.226 1072.44 -395.734 1072.27 -430.684 1072.27H-468.141L-475.165 1108.56C-480.196 1135.03 -485.579 1163.32 -490.8 1190.75L-490.838 1190.96L-490.84 1190.97L-490.841 1190.97C-500.874 1243.69 -510.3 1293.23 -515.465 1320.59C-519.98 1344.51 -524.161 1366.58 -524.829 1369.59L-526 1374.94L-442.556 1374.61L-359.28 1374.1L-354.598 1350.69C-352.09 1337.82 -350.083 1325.94 -349.916 1324.27C-349.916 1321.6 -353.093 1321.43 -395.066 1321.43C-432.189 1321.43 -440.215 1321.1 -440.215 1319.09C-440.215 1317.92 -437.54 1303.37 -434.363 1286.98C-431.185 1270.43 -423.326 1228.45 -416.804 1193.51ZM172.317 1094.34C168.805 1092.5 158.772 1088.99 150.076 1086.65C132.184 1081.63 98.7394 1079.63 81.014 1082.3C44.2252 1088.16 14.2926 1102.37 -9.28567 1125.45C-42.8972 1158.22 -58.9504 1197.18 -58.9504 1246.18C-58.9504 1285.31 -47.2449 1314.74 -21.3256 1340.83C-8.44955 1353.87 -3.93459 1357.21 10.7809 1364.57C33.3558 1375.78 48.0713 1379.12 75.6629 1379.12C97.5689 1379.12 119.475 1375.61 125.662 1371.09C127.669 1369.59 130.846 1356.38 137.535 1320.59C142.551 1293.84 146.732 1271.26 146.732 1270.09C146.732 1268.92 141.046 1270.76 133.02 1274.61C94.5589 1292.5 61.2818 1285.98 47.9041 1258.05C43.5563 1248.86 42.7203 1227.79 46.2319 1216.92C55.0946 1190.16 80.1778 1174.11 109.776 1176.45C124.324 1177.62 136.699 1180.96 150.578 1187.65C155.929 1190.16 160.444 1191.67 160.946 1191.16C161.28 1190.5 164.959 1171.6 169.14 1149.19C173.32 1126.62 177.166 1105.88 177.835 1102.87C178.838 1098.02 178.337 1097.35 172.317 1094.34ZM391.879 1231.97C383.183 1202.7 362.949 1181.63 334.02 1171.6C314.455 1164.74 281.178 1163.74 260.443 1169.26C219.139 1180.13 185.36 1213.57 175.327 1253.37C165.126 1293.5 172.484 1325.78 197.567 1350.86C222.483 1375.78 256.931 1384.97 296.897 1377.45C343.384 1368.59 380.006 1334.81 392.046 1289.66C396.059 1274.77 395.892 1245.51 391.879 1231.97ZM1002.74 1197.69C996.551 1184.64 989.194 1176.78 977.321 1170.93C951.903 1158.56 921.302 1164.91 892.038 1188.66C885.851 1193.67 880.834 1196.68 880.834 1195.51C880.834 1193.67 882.172 1186.98 885.015 1174.61L885.851 1170.93H841.036H796.22L788.194 1213.91C785.083 1230.26 781.576 1249 778.985 1262.85C777.814 1269.1 776.83 1274.36 776.154 1277.95C762.441 1350.19 758.93 1370.59 759.766 1371.76C760.268 1372.6 781.338 1373.27 806.588 1373.27H852.407L853.912 1369.42C854.748 1367.42 858.761 1346.01 863.109 1321.93C874.313 1258.72 876.988 1250.19 887.356 1243.34C894.714 1238.32 900.065 1238.49 905.416 1243.84C910.934 1249.36 910.767 1250.86 898.393 1316.91C893.376 1344.34 889.195 1368.25 889.195 1370.09C889.195 1373.1 890.868 1373.27 935.85 1373.27C964.111 1373.27 983.007 1372.6 983.675 1371.6C984.177 1370.76 989.695 1343.17 995.715 1310.23C1005.41 1257.38 1006.75 1247.85 1006.92 1228.62C1007.09 1208.55 1006.75 1206.21 1002.74 1197.69ZM1280.66 1171.93C1276.48 1169.76 1268.96 1167.08 1264.11 1166.08C1207.25 1154.04 1150.06 1215.91 1150.06 1289.66C1150.06 1338.65 1173.47 1372.1 1212.6 1378.62C1234.51 1382.3 1253.74 1375.94 1271.63 1359.39C1277.32 1353.87 1282.17 1350.19 1282.17 1351.03C1282.17 1351.86 1281 1356.55 1279.66 1361.23C1278.15 1366.08 1277.48 1370.76 1277.99 1371.6C1278.65 1372.6 1295.88 1373.1 1322.63 1372.77L1366.45 1372.43L1373.47 1333.97C1375.69 1322.19 1378.13 1308.97 1380.19 1297.74C1381.85 1288.71 1383.28 1280.97 1384.17 1276.28C1392.19 1232 1394.38 1220.6 1397.69 1203.34L1398.55 1198.86C1400.73 1187.15 1402.57 1176.11 1402.57 1174.27C1402.57 1171.1 1401.39 1170.93 1356.75 1170.93H1310.93L1309.76 1181.3C1308.59 1191 1305.91 1201.03 1305.74 1196.52C1305.41 1192.67 1288.19 1175.61 1280.66 1171.93ZM-179.684 1190.16C-186.373 1180.96 -191.39 1176.78 -202.761 1170.76C-213.296 1165.41 -240.887 1164.41 -254.934 1169.09C-314.465 1188.66 -349.749 1278.12 -321.321 1337.82C-314.298 1352.37 -298.579 1368.42 -285.201 1374.27C-271.154 1380.63 -250.921 1381.63 -236.372 1376.61C-223.496 1372.26 -214.466 1366.24 -204.768 1355.88C-201.35 1352.16 -199.451 1350.1 -198.821 1350.43C-198.032 1350.85 -199.23 1355.02 -201.925 1364.41C-203.095 1368.25 -203.597 1371.76 -203.095 1372.26C-202.594 1372.93 -186.875 1373.27 -168.313 1373.27H-134.367L-132.695 1364.41C-128.849 1345.51 -97.4114 1174.78 -97.4114 1172.77C-97.4114 1171.43 -106.609 1170.93 -133.698 1171.26L-170.153 1171.77L-171.825 1185.14L-173.497 1198.52L-179.684 1190.16ZM747.559 1213.91C735.686 1191.5 715.452 1175.95 689.198 1169.26C673.48 1165.24 641.206 1164.91 625.822 1168.59C620.303 1169.93 608.598 1174.44 599.902 1178.79C586.357 1185.31 581.842 1188.66 568.966 1201.7C545.221 1225.61 536.692 1245.18 535.187 1278.79C533.682 1312.73 539.87 1330.13 560.438 1350.86C581.842 1372.26 606.926 1381.13 640.871 1379.29C662.108 1378.28 674.65 1375.27 691.038 1367.42C748.729 1339.82 775.485 1267.25 747.559 1213.91ZM1136.35 1216.58C1140.86 1192.33 1144.04 1172.27 1143.71 1171.77C1143.2 1171.26 1121.97 1170.93 1096.38 1170.93H1049.73L1048.89 1174.61C1048.39 1176.78 1045.38 1192.67 1042.37 1210.23L1041.62 1214.36C1038.07 1233.78 1030.85 1273.3 1024.64 1306.05C1018.12 1341.16 1013.27 1370.76 1013.78 1371.6C1015.45 1374.27 1106.42 1373.77 1107.42 1371.09C1107.92 1370.09 1112.77 1344.67 1118.29 1314.74C1120.32 1303.74 1122.68 1290.82 1125.09 1277.68L1125.09 1277.67L1125.09 1277.65L1125.16 1277.31L1125.17 1277.23L1125.18 1277.17L1125.2 1277.08C1129.31 1254.66 1133.52 1231.68 1136.35 1216.58ZM433.517 146.03C427.163 147.702 419.805 149.207 417.297 149.207C414.956 149.207 408.1 151.548 402.247 154.223C396.561 157.066 389.204 159.742 386.194 160.243C383.016 160.912 380.174 162.25 379.839 163.421C379.17 165.093 392.548 194.858 395.056 197.534C395.391 197.701 398.234 196.196 401.244 193.855C409.605 187.333 447.397 171.614 461.778 168.437C466.46 167.434 466.46 167.267 465.791 158.404C464.453 142.016 457.764 139.508 433.517 146.03ZM732.007 389.337C740.87 380.307 747.893 374.788 756.087 370.775C764.448 366.595 769.799 364.922 775.485 364.922C782.675 364.922 784.347 365.759 791.203 371.946C798.728 378.802 798.896 379.471 799.899 391.009C800.735 399.872 800.401 403.885 798.394 407.731C794.882 414.253 782.341 426.794 777.491 428.634C767.792 432.313 758.762 428.467 758.762 420.44C758.762 416.092 767.96 406.561 775.485 402.882C778.495 401.377 779.832 399.203 780.167 395.189L780.669 389.504L769.297 390.34C755.418 391.343 749.231 394.019 744.381 401.209C736.689 412.748 738.027 426.293 748.228 436.995L752.241 441.343L726.656 442.68C712.609 443.349 699.9 443.851 698.563 443.684C697.225 443.516 691.874 443.349 686.857 443.349L677.66 443.516L686.021 436.493C690.703 432.48 696.222 427.129 698.563 424.453C702.576 419.771 705.586 416.594 732.007 389.337ZM273.82 1250.03C258.603 1260.23 254.924 1284.31 267.131 1295.01C278.168 1305.04 298.235 1298.52 304.589 1283.14C310.275 1268.75 306.261 1251.7 296.228 1247.85C289.038 1245.01 279.673 1245.85 273.82 1250.03ZM1245.04 1278.12C1245.21 1262.23 1253.57 1249.69 1265.44 1247.35C1280.49 1244.51 1292.2 1254.87 1292.2 1271.26C1292.03 1287.48 1282.33 1299.19 1267.62 1300.69C1252.74 1302.2 1244.88 1294.34 1245.04 1278.12ZM-238.713 1232.13C-249.248 1235.81 -257.275 1243.5 -263.295 1255.88C-268.479 1266.25 -268.813 1268.25 -268.813 1283.8C-268.813 1298.52 -268.311 1301.36 -264.633 1308.05C-258.445 1319.09 -248.746 1323.94 -233.697 1323.94C-207.443 1323.77 -188.881 1305.04 -186.54 1276.28C-185.202 1261.23 -188.045 1251.53 -196.239 1242.17C-206.607 1230.46 -223.162 1226.61 -238.713 1232.13ZM623.313 1276.11C623.313 1265.58 629.166 1254.37 637.193 1249.36C640.537 1247.35 645.554 1246.18 650.738 1246.18C657.594 1246.18 659.6 1247.02 664.45 1251.87C669.634 1257.05 670.135 1258.39 670.135 1267.42C670.135 1286.31 659.099 1299.69 643.547 1299.69C630.17 1299.69 623.313 1291.66 623.313 1276.11Z" fill="#9A0014"/>
</g>
<defs>
<clipPath id="clip0_626_371">
<rect width="1073" height="1042" fill="white"/>
</clipPath>
</defs>
</svg>
